<svg width="136" height="40" viewBox="0 0 136 40" fill="none" xmlns="http://www.w3.org/2000/svg">
<path d="M0.728 26V0.368H6.092C7.268 0.368 8.264 0.547999 9.08 0.907999C9.92 1.268 10.604 1.748 11.132 2.348C11.66 2.948 12.032 3.644 12.248 4.436C12.488 5.204 12.608 6.008 12.608 6.848V7.784C12.608 8.48 12.548 9.068 12.428 9.548C12.332 10.028 12.176 10.448 11.96 10.808C11.552 11.48 10.928 12.056 10.088 12.536C10.952 12.944 11.588 13.544 11.996 14.336C12.404 15.128 12.608 16.208 12.608 17.576V19.016C12.608 21.272 12.056 23 10.952 24.2C9.872 25.4 8.132 26 5.732 26H0.728ZM4.4 14.12V22.328H5.984C6.728 22.328 7.304 22.22 7.712 22.004C8.144 21.788 8.468 21.488 8.684 21.104C8.9 20.72 9.032 20.264 9.08 19.736C9.128 19.208 9.152 18.632 9.152 18.008C9.152 17.36 9.116 16.796 9.044 16.316C8.972 15.836 8.828 15.428 8.612 15.092C8.372 14.756 8.048 14.516 7.64 14.372C7.232 14.204 6.692 14.12 6.02 14.12H4.4ZM4.4 3.824V10.88H6.056C7.28 10.88 8.096 10.58 8.504 9.98C8.936 9.356 9.152 8.456 9.152 7.28C9.152 6.128 8.912 5.264 8.432 4.688C7.976 4.112 7.136 3.824 5.912 3.824H4.4ZM29.3761 0.368V20.24C29.3761 21.08 29.2201 21.86 28.9081 22.58C28.6201 23.276 28.2001 23.9 27.6481 24.452C27.0961 25.004 26.4601 25.436 25.7401 25.748C25.0201 26.06 24.2521 26.216 23.4361 26.216C22.6201 26.216 21.8521 26.06 21.1321 25.748C20.4361 25.436 19.8121 25.004 19.2601 24.452C18.7081 23.9 18.2761 23.276 17.9641 22.58C17.6521 21.86 17.4961 21.08 17.4961 20.24V0.368H21.1681V19.88C21.1681 20.792 21.3841 21.464 21.8161 21.896C22.2481 22.328 22.7881 22.544 23.4361 22.544C24.0841 22.544 24.6241 22.328 25.0561 21.896C25.4881 21.464 25.7041 20.792 25.7041 19.88V0.368H29.3761ZM34.3723 26V0.368H38.0443V26H34.3723ZM43.0519 26V0.368H46.7239V22.328H53.9959V26H43.0519ZM57.5563 26V3.824H53.3083V0.368H65.4763V3.824H61.2283V26H57.5563ZM68.5374 26V0.368H79.4814V3.824H72.2094V11.6H78.5454V15.056H72.2094V26H68.5374ZM83.4096 26V0.368H87.0816V26H83.4096ZM95.7613 3.824V11.816H97.8493C98.4973 11.816 99.0133 11.732 99.3973 11.564C99.7813 11.372 100.081 11.108 100.297 10.772C100.489 10.436 100.621 10.028 100.693 9.548C100.765 9.044 100.801 8.468 100.801 7.82C100.801 7.172 100.765 6.608 100.693 6.128C100.621 5.624 100.477 5.192 100.261 4.832C99.8053 4.16 98.9413 3.824 97.6693 3.824H95.7613ZM92.0893 26V0.368H97.9933C102.313 0.368 104.473 2.876 104.473 7.892C104.473 9.404 104.233 10.688 103.753 11.744C103.297 12.8 102.481 13.652 101.305 14.3L105.265 26H101.377L97.9573 15.056H95.7613V26H92.0893ZM120.737 7.748H117.065V6.92C117.065 6.08 116.861 5.36 116.453 4.76C116.069 4.136 115.409 3.824 114.473 3.824C113.969 3.824 113.561 3.92 113.249 4.112C112.937 4.304 112.685 4.544 112.493 4.832C112.301 5.144 112.169 5.504 112.097 5.912C112.025 6.296 111.989 6.704 111.989 7.136C111.989 7.64 112.001 8.06 112.025 8.396C112.073 8.732 112.169 9.032 112.313 9.296C112.457 9.56 112.661 9.788 112.925 9.98C113.213 10.172 113.597 10.364 114.077 10.556L116.885 11.672C117.701 11.984 118.361 12.356 118.865 12.788C119.369 13.196 119.765 13.676 120.053 14.228C120.317 14.804 120.497 15.464 120.593 16.208C120.689 16.928 120.737 17.756 120.737 18.692C120.737 19.772 120.629 20.78 120.413 21.716C120.197 22.628 119.849 23.408 119.369 24.056C118.865 24.728 118.205 25.256 117.389 25.64C116.573 26.024 115.577 26.216 114.401 26.216C113.513 26.216 112.685 26.06 111.917 25.748C111.149 25.436 110.489 25.004 109.937 24.452C109.385 23.9 108.941 23.264 108.605 22.544C108.293 21.8 108.137 20.996 108.137 20.132V18.764H111.809V19.916C111.809 20.588 112.001 21.2 112.385 21.752C112.793 22.28 113.465 22.544 114.401 22.544C115.025 22.544 115.505 22.46 115.841 22.292C116.201 22.1 116.477 21.836 116.669 21.5C116.861 21.164 116.969 20.768 116.993 20.312C117.041 19.832 117.065 19.304 117.065 18.728C117.065 18.056 117.041 17.504 116.993 17.072C116.945 16.64 116.849 16.292 116.705 16.028C116.537 15.764 116.309 15.548 116.021 15.38C115.757 15.212 115.397 15.032 114.941 14.84L112.313 13.76C110.729 13.112 109.661 12.26 109.109 11.204C108.581 10.124 108.317 8.78 108.317 7.172C108.317 6.212 108.449 5.3 108.713 4.436C108.977 3.572 109.373 2.828 109.901 2.204C110.405 1.58 111.041 1.088 111.809 0.727999C112.601 0.343998 113.537 0.151998 114.617 0.151998C115.529 0.151998 116.357 0.319998 117.101 0.655998C117.869 0.991998 118.529 1.436 119.081 1.988C120.185 3.14 120.737 4.46 120.737 5.948V7.748ZM127.334 26V3.824H123.086V0.368H135.254V3.824H131.006V26H127.334Z" fill="#2C2C2C"/>
<path d="M0.898438 32.8613H3.12012C4.13249 32.8613 4.86654 33.0062 5.32227 33.2959C5.78125 33.5824 6.01074 34.0397 6.01074 34.668C6.01074 35.0944 5.90983 35.4443 5.70801 35.7178C5.50944 35.9912 5.24414 36.1556 4.91211 36.2109V36.2598C5.36458 36.3607 5.6901 36.5495 5.88867 36.8262C6.09049 37.1029 6.19141 37.4707 6.19141 37.9297C6.19141 38.5807 5.9554 39.0885 5.4834 39.4531C5.01465 39.8177 4.37663 40 3.56934 40H0.898438V32.8613ZM2.41211 35.6885H3.29102C3.70117 35.6885 3.9974 35.625 4.17969 35.498C4.36523 35.3711 4.45801 35.1611 4.45801 34.8682C4.45801 34.5947 4.3571 34.3994 4.15527 34.2822C3.95671 34.1618 3.64095 34.1016 3.20801 34.1016H2.41211V35.6885ZM2.41211 36.8896V38.75H3.39844C3.8151 38.75 4.12272 38.6702 4.32129 38.5107C4.51986 38.3512 4.61914 38.1071 4.61914 37.7783C4.61914 37.1859 4.19596 36.8896 3.34961 36.8896H2.41211ZM12.1285 40H8.01719V32.8613H12.1285V34.1016H9.53086V35.6689H11.9479V36.9092H9.53086V38.75H12.1285V40ZM16.7766 40H15.2629V34.1211H13.3244V32.8613H18.715V34.1211H16.7766V40ZM24.5838 40L24.0662 38.3008H21.4637L20.9461 40H19.3152L21.8348 32.832H23.6854L26.2146 40H24.5838ZM23.7049 37.0312C23.2264 35.4915 22.9562 34.6208 22.8943 34.4189C22.8357 34.2171 22.7934 34.0576 22.7674 33.9404C22.66 34.3571 22.3523 35.3874 21.8445 37.0312H23.7049Z" fill="#2C2C2C"/>
</svg>
