<svg width="177" height="47" viewBox="0 0 177 47" fill="none" xmlns="http://www.w3.org/2000/svg">
<path d="M70.9359 25.0303L68.1126 17.3245C68.004 16.9966 67.5425 16.9966 67.4339 17.3245L64.6106 25.0303C64.5292 25.2762 64.6921 25.5222 64.9364 25.5222H70.6102C70.8545 25.5222 71.0445 25.2762 70.9359 25.0303ZM72.2661 29.3751H63.3075C63.1447 29.3751 63.0361 29.457 62.9818 29.621L61.2172 34.403C61.1629 34.5396 61.0272 34.6489 60.8914 34.6489H57.0094C56.7651 34.6489 56.575 34.403 56.6836 34.157L65.6151 11.7227C65.6694 11.5861 65.8051 11.5041 65.9408 11.5041H69.66C69.7957 11.5041 69.9315 11.5861 69.9858 11.7227L78.9172 34.157C78.9987 34.403 78.8358 34.6489 78.5914 34.6489H74.7094C74.5465 34.6489 74.4379 34.5669 74.3836 34.403L72.619 29.621C72.5376 29.457 72.4019 29.3751 72.2661 29.3751ZM80.7361 19.3466H84.048C84.2381 19.3466 84.4009 19.5105 84.4009 19.7018V34.2663C84.4009 34.4576 84.2381 34.6216 84.048 34.6216H80.7361C80.546 34.6216 80.3832 34.4576 80.3832 34.2663V19.7018C80.3832 19.5105 80.546 19.3466 80.7361 19.3466ZM96.5358 22.8716C96.5358 23.0629 96.3729 23.2268 96.1828 23.2268H96.0743C94.4183 23.2268 93.2238 23.6367 92.4637 24.4291C91.7036 25.2216 91.3235 26.5332 91.3235 28.364V34.2663C91.3235 34.4576 91.1606 34.6216 90.9706 34.6216H87.6858C87.4957 34.6216 87.3329 34.4576 87.3329 34.2663V19.7018C87.3329 19.5105 87.4957 19.3466 87.6858 19.3466H90.9434C91.1335 19.3466 91.2963 19.5105 91.2963 19.7018V22.571H91.3506C91.7579 21.3687 92.3822 20.4669 93.2238 19.8384C94.0654 19.2099 95.1241 18.882 96.3729 18.882H96.5358V22.8716ZM105.63 22.7623C105.44 22.7623 105.277 22.9262 105.277 23.1175V29.1838C105.277 29.8123 105.386 30.2495 105.63 30.4954C105.874 30.7687 106.282 30.9053 106.879 30.9053H107.205C107.395 30.9053 107.558 31.0693 107.558 31.2605V34.321C107.558 34.5123 107.395 34.6762 107.205 34.6762H105.793C104.327 34.6762 103.187 34.2937 102.4 33.5286C101.612 32.7634 101.205 31.6431 101.205 30.1402V23.1175C101.205 22.9262 101.042 22.7623 100.852 22.7623H98.789C98.599 22.7623 98.4361 22.5983 98.4361 22.407V19.7291C98.4361 19.5379 98.599 19.3739 98.789 19.3739H100.852C101.042 19.3739 101.205 19.2099 101.205 19.0187V13.6355C101.205 13.4442 101.368 13.2803 101.558 13.2803H104.87C105.06 13.2803 105.223 13.4442 105.223 13.6355V19.0187C105.223 19.2099 105.386 19.3739 105.576 19.3739H107.992C108.182 19.3739 108.345 19.5379 108.345 19.7291V22.407C108.345 22.5983 108.182 22.7623 107.992 22.7623H105.63ZM120.833 30.0855C121.593 29.2931 121.973 28.2547 121.973 26.9704C121.973 25.6861 121.593 24.6477 120.833 23.8553C120.072 23.0629 119.095 22.653 117.846 22.653C116.625 22.653 115.62 23.0629 114.86 23.8553C114.1 24.6477 113.72 25.6861 113.72 26.9704C113.72 28.2547 114.1 29.2931 114.86 30.0855C115.62 30.878 116.598 31.2879 117.846 31.2879C119.095 31.2879 120.072 30.878 120.833 30.0855ZM113.177 34.157C112.064 33.5286 111.168 32.5995 110.544 31.3698C109.892 30.1402 109.566 28.6919 109.566 26.9977C109.566 25.3035 109.892 23.828 110.544 22.6256C111.195 21.396 112.064 20.4669 113.177 19.8384C114.29 19.2099 115.512 18.882 116.869 18.882C118.064 18.882 119.068 19.1006 119.91 19.5652C120.751 20.0297 121.43 20.6855 121.918 21.5053H121.973V19.7291C121.973 19.5379 122.136 19.3739 122.326 19.3739H125.61C125.8 19.3739 125.963 19.5379 125.963 19.7291V34.2937C125.963 34.4849 125.8 34.6489 125.61 34.6489H122.326C122.136 34.6489 121.973 34.4849 121.973 34.2937V32.5175H121.918C121.403 33.3646 120.751 33.9931 119.91 34.4576C119.068 34.9222 118.064 35.1408 116.869 35.1408C115.512 35.1134 114.29 34.8129 113.177 34.157ZM139.673 30.0855C140.433 29.2931 140.813 28.2547 140.813 26.9704C140.813 25.6861 140.433 24.6477 139.673 23.8553C138.913 23.0629 137.935 22.653 136.687 22.653C135.465 22.653 134.46 23.0629 133.7 23.8553C132.94 24.6477 132.56 25.6861 132.56 26.9704C132.56 28.2547 132.94 29.2931 133.7 30.0855C134.46 30.878 135.438 31.2879 136.687 31.2879C137.908 31.2879 138.913 30.878 139.673 30.0855ZM134.678 34.4303C133.836 33.9658 133.157 33.3099 132.669 32.4902H132.614V34.2663C132.614 34.4576 132.452 34.6216 132.262 34.6216H128.95C128.76 34.6216 128.597 34.4576 128.597 34.2663V11.832C128.597 11.6408 128.76 11.4768 128.95 11.4768H132.262C132.452 11.4768 132.614 11.6408 132.614 11.832V21.5053H132.669C133.185 20.6582 133.836 20.0297 134.678 19.5652C135.519 19.1006 136.524 18.882 137.718 18.882C139.048 18.882 140.27 19.2099 141.41 19.8384C142.523 20.4669 143.419 21.396 144.043 22.6256C144.695 23.8553 145.021 25.3035 145.021 26.9977C145.021 28.6919 144.695 30.1675 144.043 31.3698C143.392 32.5995 142.523 33.5286 141.41 34.157C140.297 34.7855 139.075 35.1134 137.718 35.1134C136.524 35.1134 135.519 34.8948 134.678 34.4303ZM150.613 34.6216H147.301C147.111 34.6216 146.948 34.4576 146.948 34.2663V11.832C146.948 11.6408 147.111 11.4768 147.301 11.4768H150.613C150.803 11.4768 150.966 11.6408 150.966 11.832V34.2663C150.966 34.4576 150.803 34.6216 150.613 34.6216ZM158.431 22.8716C157.889 23.3088 157.508 23.9373 157.318 24.757C157.264 24.9756 157.427 25.1943 157.671 25.1943H163.997C164.214 25.1943 164.377 25.003 164.35 24.7844C164.214 24.0193 163.888 23.3908 163.372 22.9262C162.748 22.3797 161.933 22.1065 160.929 22.1065C159.897 22.1338 159.083 22.3797 158.431 22.8716ZM166.548 20.9861C167.852 22.407 168.476 24.4291 168.476 27.0251V27.4623C168.476 27.6536 168.313 27.8175 168.123 27.8175H157.563C157.346 27.8175 157.156 28.0088 157.21 28.2547C157.373 29.2111 157.807 29.9762 158.486 30.5501C159.273 31.2059 160.25 31.5338 161.418 31.5338C162.938 31.5338 164.35 30.9326 165.653 29.7303C165.816 29.5937 166.06 29.621 166.196 29.7849L167.824 32.1076C167.933 32.2443 167.906 32.4629 167.77 32.5722C166.983 33.2826 166.114 33.8565 165.137 34.321C164.078 34.8402 162.856 35.0861 161.418 35.0861C159.762 35.0861 158.35 34.7582 157.101 34.0751C155.88 33.3919 154.929 32.4629 154.251 31.2332C153.572 30.0035 153.219 28.5826 153.219 26.9704C153.219 25.3582 153.545 23.9373 154.196 22.7076C154.848 21.478 155.771 20.5216 156.966 19.8384C158.16 19.1553 159.517 18.8001 161.119 18.8001C163.427 18.8547 165.245 19.5652 166.548 20.9861ZM84.8625 13.9634C84.8625 15.3297 83.7766 16.4227 82.4192 16.4227C81.0618 16.4227 79.976 15.3297 79.976 13.9634C79.976 12.5972 81.0618 11.5041 82.4192 11.5041C83.7494 11.5041 84.8625 12.5972 84.8625 13.9634Z" fill="#2C2C2C"/>
<path d="M24.5138 4.94599L8.7141 11.5315C7.84539 11.8867 7.84539 13.1437 8.74125 13.4989L24.5952 19.8384C25.9797 20.3849 27.5543 20.3849 28.9388 19.8384L44.7928 13.4989C45.6886 13.1437 45.6886 11.8867 44.8199 11.5315L29.0202 4.94599C27.5814 4.34483 25.9526 4.34483 24.5138 4.94599Z" fill="#2C2C2C"/>
<path d="M28.1787 23.3088V39.1303C28.1787 39.8954 28.9388 40.3873 29.6175 40.114L47.2904 33.2007C47.6976 33.0367 47.969 32.6542 47.969 32.217V16.3954C47.969 15.6303 47.2089 15.1385 46.5302 15.4117L28.8574 22.3251C28.4502 22.4617 28.1787 22.8716 28.1787 23.3088Z" fill="#2C2C2C"/>
<path d="M24.0524 24.1012L18.813 26.6425L18.27 26.8884L7.19397 32.2169C6.48814 32.5448 5.59229 32.053 5.59229 31.2605V16.4227C5.59229 16.1495 5.72802 15.9035 5.91805 15.7123C5.99949 15.6303 6.08094 15.5756 6.18952 15.521C6.461 15.357 6.84106 15.3297 7.13968 15.439L23.9438 22.1338C24.8125 22.5163 24.8668 23.7187 24.0524 24.1012Z" fill="#2C2C2C"/>
<path d="M24.0525 24.1012L18.8131 26.6425L5.94531 15.7123C6.02675 15.6303 6.1082 15.5756 6.21678 15.521C6.48826 15.357 6.86832 15.3297 7.16694 15.439L23.9711 22.1338C24.8126 22.5163 24.8669 23.7187 24.0525 24.1012Z" fill="#2C2C2C"/>
</svg>
