<svg width="122" height="41" viewBox="0 0 122 41" fill="none" xmlns="http://www.w3.org/2000/svg">
<path d="M13.1781 5.50269C17.3174 5.50269 21.7505 7.64289 21.7505 13.3458C21.7505 16.1989 20.5253 18.0867 18.4565 19.4289C20.5253 20.7707 21.7505 22.6588 21.7505 25.5115C21.7505 31.217 17.3153 33.3551 13.1781 33.3551H0V5.50269H13.1781ZM13.1337 9.0261H3.80181V17.668H13.1362C16.0085 17.668 17.9511 16.1989 17.9511 13.3484C17.9489 10.4956 16.006 9.0261 13.1337 9.0261ZM13.1337 21.1919H3.80181V29.8338H13.1362C16.0085 29.8338 17.9511 28.3643 17.9511 25.5141C17.9489 22.661 16.006 21.1919 13.1337 21.1919Z" fill="#2C2C2C"/>
<path d="M68.802 9.0261V17.668H80.9941V21.1919H68.802V29.8338H84.0069V33.3572H65.0029V5.50269H84.0069V9.0261H68.802Z" fill="#2C2C2C"/>
<path d="M104.066 14.3669L97.6628 5.50269H93.3115L101.904 17.3569L104.066 14.3669Z" fill="#2C2C2C"/>
<path d="M109.332 21.6251L107.17 24.6078L113.499 33.3572H117.809L109.332 21.6251Z" fill="#2C2C2C"/>
<path d="M92.2932 41H87.9834L117.651 0H122L92.2932 41Z" fill="#2C2C2C"/>
<path d="M46.7184 21.8629C51.4917 21.5271 54.7857 18.6744 54.7857 13.6836C54.7857 8.44079 51.1121 5.50476 45.8307 5.50476H32.1895V9.0286H45.8307C48.8707 9.0286 50.9836 10.6643 50.9836 13.6836C50.9836 16.7029 48.8707 18.3391 45.8307 18.3391H32.1895V33.3571H35.9911V21.8629H41.9871L50.8135 33.3571H55.5448L46.7184 21.8629Z" fill="#2C2C2C"/>
</svg>
