<svg width="164" height="32" viewBox="0 0 164 32" fill="none" xmlns="http://www.w3.org/2000/svg">
<path d="M161.88 24.8977V24.4544H162.166C162.318 24.4544 162.536 24.4709 162.536 24.6514C162.536 24.832 162.418 24.8977 162.233 24.8977H161.88ZM161.88 25.2095H162.082L162.536 25.9811H163.024L162.519 25.1767C162.772 25.1931 162.974 25.0126 162.991 24.7663V24.7007C162.991 24.2739 162.688 24.1425 162.183 24.1425H161.459V25.9811H161.88V25.2095ZM164 25.0618C164 23.9784 163.142 23.3546 162.183 23.3546C161.224 23.3546 160.366 23.9784 160.366 25.0618C160.366 26.1452 161.224 26.769 162.183 26.769C163.142 26.769 164 26.1452 164 25.0618ZM163.462 25.0618C163.495 25.7512 162.94 26.3422 162.233 26.375H162.183C161.443 26.4079 160.82 25.8333 160.786 25.1111C160.753 24.3888 161.342 23.7814 162.082 23.7486C162.822 23.7158 163.445 24.2903 163.478 25.0126C163.462 25.029 163.462 25.0454 163.462 25.0618Z" fill="#2C2C2C"/>
<path d="M97.2859 6.82433V26.1944H102.889V6.82433H97.2859ZM53.2026 6.7915V26.178H58.8561V11.1251L63.2644 11.1416C64.7114 11.1416 65.7209 11.4863 66.4108 12.2086C67.3026 13.1278 67.6559 14.6216 67.6559 17.3301V26.178H73.1411V15.4752C73.1411 7.82567 68.1438 6.7915 63.2644 6.7915H53.2026ZM106.321 6.82433V26.1944H115.407C120.253 26.1944 121.835 25.4065 123.534 23.65C124.745 22.4189 125.519 19.6939 125.519 16.7228C125.519 13.9978 124.863 11.5684 123.702 10.0581C121.65 7.34962 118.655 6.82433 114.179 6.82433H106.321ZM111.874 11.0267H114.28C117.78 11.0267 120.034 12.5533 120.034 16.5258C120.034 20.4983 117.78 22.0413 114.28 22.0413H111.874V11.0267ZM89.2096 6.82433L84.5321 22.1726L80.0564 6.82433H73.9992L80.3929 26.1944H88.4693L94.9303 6.82433H89.2096ZM128.144 26.1944H133.747V6.82433H128.144V26.1944ZM143.859 6.82433L136.036 26.178H141.554L142.799 22.7472H152.054L153.231 26.1616H159.238L151.347 6.82433H143.859ZM147.494 10.3536L150.893 19.4149H143.994L147.494 10.3536Z" fill="#2C2C2C"/>
<path d="M17.0444 10.0418V7.38249C17.3136 7.36607 17.5828 7.34966 17.8521 7.34966C25.3227 7.11984 30.2189 13.6203 30.2189 13.6203C30.2189 13.6203 24.9357 20.7774 19.2654 20.7774C18.5083 20.7774 17.7679 20.6625 17.0612 20.4327V12.3563C19.9721 12.701 20.561 13.9486 22.294 16.7885L26.1808 13.6039C26.1808 13.6039 23.3372 9.97611 18.5587 9.97611C18.054 9.95969 17.5492 9.99252 17.0444 10.0418ZM17.0444 1.24316V5.21567L17.8521 5.16642C28.2335 4.8217 35.0143 13.4726 35.0143 13.4726C35.0143 13.4726 27.2408 22.698 19.1476 22.698C18.441 22.698 17.7511 22.6323 17.0612 22.5174V24.9797C17.6333 25.0454 18.2222 25.0946 18.7943 25.0946C26.3322 25.0946 31.7837 21.3355 37.067 16.9034C37.9419 17.5928 41.5258 19.2508 42.2661 19.973C37.2521 24.0769 25.5582 27.3763 18.9289 27.3763C18.2895 27.3763 17.6838 27.3435 17.0781 27.2778V30.7415H45.7154V1.24316H17.0444ZM17.0444 20.4327V22.5338C10.0786 21.3191 8.14363 14.2441 8.14363 14.2441C8.14363 14.2441 11.4919 10.6327 17.0444 10.0418V12.3399H17.0276C14.1168 11.9952 11.8285 14.6545 11.8285 14.6545C11.8285 14.6545 13.124 19.1358 17.0444 20.4327ZM4.67754 13.9486C4.67754 13.9486 8.79984 8.00627 17.0612 7.38249V5.21567C7.90807 5.93794 0 13.489 0 13.489C0 13.489 4.47563 26.1288 17.0444 27.2778V24.9797C7.82395 23.8635 4.67754 13.9486 4.67754 13.9486Z" fill="#2C2C2C"/>
</svg>
