<svg width="104" height="74" viewBox="0 0 104 74" fill="none" xmlns="http://www.w3.org/2000/svg">
<path d="M43.2886 8.06152C46.6472 4.50497 51.312 2.2999 56.4665 2.2999C63.3236 2.2999 69.3178 6.1884 72.5131 11.9737C75.2886 10.7171 78.344 10.0058 81.586 10.0058C93.9708 10.0058 104 20.2961 104 33.0048C104 45.7136 93.9708 56.0038 81.586 56.0038C80.07 56.0038 78.6006 55.8379 77.1778 55.5533C74.379 60.6511 69.0146 64.0891 62.8805 64.0891C60.3149 64.0891 57.8659 63.4963 55.7201 62.4056C52.8746 69.2105 46.2274 74 38.5073 74C30.4606 74 23.5802 68.8311 20.9679 61.5521C19.8251 61.7892 18.6122 61.9314 17.3994 61.9314C7.76676 61.9314 0 53.9648 0 44.1012C0 37.5098 3.49854 31.7482 8.67638 28.6658C7.6035 26.1762 7.02041 23.4021 7.02041 20.5095C7.02041 9.17591 16.07 0 27.2187 0C33.7726 0 39.5802 3.15348 43.2886 8.06152Z" fill="#2C2C2C"/>
<path d="M15.0671 38.387C14.9971 38.553 15.0904 38.6004 15.1137 38.6241C15.3003 38.7664 15.5102 38.8612 15.6968 38.9798C16.7464 39.5488 17.7493 39.7148 18.7989 39.7148C20.9213 39.7148 22.2507 38.553 22.2507 36.7036V36.6562C22.2507 34.949 20.758 34.3089 19.3586 33.8584L19.172 33.8109C18.1225 33.4553 17.2128 33.1708 17.2128 32.4594V32.412C17.2128 31.7956 17.7493 31.3688 18.5656 31.3688C19.4752 31.3688 20.5714 31.677 21.2712 32.0801C21.2712 32.0801 21.4811 32.2223 21.551 32.009C21.5977 31.8904 21.9475 30.9183 21.9942 30.8234C22.0408 30.7049 21.9709 30.6338 21.9009 30.5863C21.1079 30.0884 19.9884 29.7565 18.8455 29.7565H18.6356C16.6764 29.7565 15.3236 30.9657 15.3236 32.6728V32.7203C15.3236 34.5222 16.8163 35.115 18.2391 35.5181L18.4723 35.5892C19.4986 35.9212 20.3849 36.182 20.3849 36.917V36.9644C20.3849 37.6283 19.8018 38.1262 18.8921 38.1262C18.5423 38.1262 17.3761 38.1262 16.14 37.3201C16 37.2252 15.9067 37.1778 15.7901 37.083C15.7201 37.0355 15.5802 36.9881 15.5102 37.1778L15.0671 38.387Z" fill="#EBEDEF"/>
<path d="M46.2975 38.387C46.2276 38.553 46.3209 38.6004 46.3442 38.6241C46.5308 38.7664 46.7407 38.8612 46.9273 38.9798C47.9768 39.5488 48.9798 39.7148 50.0293 39.7148C52.1518 39.7148 53.4812 38.553 53.4812 36.7036V36.6562C53.4812 34.949 51.9885 34.3089 50.5891 33.8584L50.4025 33.8109C49.3529 33.4553 48.4433 33.1708 48.4433 32.4594V32.412C48.4433 31.7956 48.9798 31.3688 49.7961 31.3688C50.7057 31.3688 51.8019 31.677 52.5016 32.0801C52.5016 32.0801 52.7115 32.2223 52.7815 32.009C52.8282 31.8904 53.178 30.9183 53.2247 30.8234C53.2713 30.7049 53.2013 30.6338 53.1314 30.5863C52.3384 30.0884 51.2188 29.7565 50.076 29.7565H49.8661C47.9069 29.7565 46.5541 30.9657 46.5541 32.6728V32.7203C46.5541 34.5222 48.0701 35.115 49.4696 35.5181L49.7028 35.5892C50.729 35.9212 51.6153 36.182 51.6153 36.917V36.9644C51.6153 37.6283 51.0322 38.1262 50.1226 38.1262C49.7728 38.1262 48.6066 38.1262 47.3704 37.3201C47.2305 37.2252 47.1372 37.1778 47.0206 37.083C46.9739 37.0593 46.8107 36.9881 46.7407 37.1778L46.2975 38.387Z" fill="#EBEDEF"/>
<path d="M69.3879 32.7914C69.2246 32.1986 68.9447 31.6533 68.5715 31.2265C68.1983 30.776 67.7552 30.4203 67.1954 30.1595C66.659 29.8987 66.0059 29.7802 65.2829 29.7802C64.5599 29.7802 63.9068 29.9224 63.3704 30.1595C62.8339 30.4203 62.3674 30.776 61.9943 31.2265C61.6211 31.677 61.3645 32.1986 61.1779 32.7914C61.0147 33.3841 60.9214 34.048 60.9214 34.7356C60.9214 35.4232 61.0147 36.0871 61.1779 36.6799C61.3412 37.2726 61.6211 37.818 61.9943 38.2447C62.3674 38.6952 62.8106 39.0509 63.3704 39.288C63.9068 39.5488 64.5599 39.6674 65.2829 39.6674C66.0059 39.6674 66.6357 39.5488 67.1954 39.288C67.7319 39.0272 68.1983 38.6715 68.5715 38.2447C68.9447 37.7942 69.2013 37.2726 69.3879 36.6799C69.5511 36.0871 69.6444 35.4232 69.6444 34.7356C69.6677 34.048 69.5744 33.3841 69.3879 32.7914ZM67.6153 34.7356C67.6153 35.7789 67.4287 36.6087 67.0322 37.2015C66.659 37.7705 66.0992 38.0551 65.3062 38.0551C64.5132 38.0551 63.9535 37.7705 63.5803 37.2015C63.2071 36.6087 63.0205 35.7789 63.0205 34.7356C63.0205 33.6924 63.2071 32.8625 63.5803 32.2934C63.9535 31.7244 64.5132 31.4399 65.3062 31.4399C66.0992 31.4399 66.659 31.7244 67.0322 32.2934C67.4287 32.8625 67.6153 33.6924 67.6153 34.7356Z" fill="#EBEDEF"/>
<path fill-rule="evenodd" clip-rule="evenodd" d="M84.0115 37.7706C83.9648 37.6046 83.7782 37.652 83.7782 37.652C83.5217 37.7469 83.2418 37.8417 82.9386 37.8891C82.6354 37.9365 82.3088 37.9603 81.959 37.9603C81.096 37.9603 80.4196 37.6994 79.9298 37.1778C79.44 36.6562 79.1601 35.8263 79.1601 34.7119C79.1601 33.6924 79.4167 32.9099 79.8365 32.3172C80.2797 31.7244 80.9327 31.4399 81.819 31.4399C82.5421 31.4399 83.1251 31.5347 83.7082 31.7244C83.7082 31.7244 83.8482 31.7956 83.9182 31.6059C84.0814 31.1554 84.198 30.8471 84.3613 30.3729C84.408 30.2307 84.2913 30.1833 84.2447 30.1595C84.0115 30.0647 83.475 29.9224 83.0552 29.8513C82.682 29.8039 82.2155 29.7565 81.7257 29.7565C80.9794 29.7565 80.303 29.8987 79.7432 30.1358C79.1835 30.3966 78.6937 30.7523 78.2972 31.2028C77.924 31.6533 77.6208 32.1749 77.4342 32.7677C77.2476 33.3604 77.1543 34.0243 77.1543 34.7119C77.1543 36.2057 77.5508 37.4149 78.3438 38.3159C79.1368 39.2169 80.3263 39.6674 81.8657 39.6674C82.7753 39.6674 83.7082 39.4777 84.3846 39.2169C84.3846 39.2169 84.5246 39.1458 84.4546 39.0035L84.0115 37.7706Z" fill="#EBEDEF"/>
<path fill-rule="evenodd" clip-rule="evenodd" d="M93.1314 32.4594C92.9914 31.8666 92.5949 31.2976 92.3617 31.0368C91.9652 30.61 91.592 30.3255 91.2188 30.1595C90.729 29.9461 90.146 29.8038 89.4929 29.8038C88.7465 29.8038 88.0468 29.9224 87.5104 30.2069C86.9506 30.4677 86.4842 30.8234 86.111 31.2739C85.7378 31.7244 85.4812 32.246 85.2946 32.8625C85.1081 33.4552 85.0381 34.1191 85.0381 34.8067C85.0381 35.518 85.1314 36.1819 85.318 36.7747C85.5046 37.3674 85.7844 37.8891 86.1809 38.3396C86.5774 38.7663 87.0906 39.122 87.697 39.3591C88.3034 39.5962 89.0497 39.7148 89.8894 39.7148C91.6387 39.7148 92.5483 39.3117 92.9215 39.0983C92.9914 39.0509 93.0614 39.0034 92.9681 38.8138L92.5716 37.6994C92.5016 37.5334 92.3384 37.6045 92.3384 37.6045C91.8952 37.7705 91.2888 38.055 89.8661 38.055C88.9331 38.055 88.2334 37.7705 87.8136 37.3437C87.3704 36.8932 87.1372 36.2293 87.1139 35.3046H93.1314C93.1314 35.3046 93.2946 35.3046 93.318 35.1387C93.318 35.0201 93.5279 33.8346 93.1314 32.4594ZM87.1372 33.7398C87.2305 33.147 87.3704 32.6728 87.627 32.2934C88.0002 31.7244 88.5599 31.3924 89.353 31.3924C90.146 31.3924 90.6591 31.7007 91.0322 32.2934C91.2888 32.6728 91.3821 33.1707 91.4288 33.7398H87.1372Z" fill="#EBEDEF"/>
<path fill-rule="evenodd" clip-rule="evenodd" d="M44.8511 32.4594C44.7112 31.8666 44.3147 31.2976 44.0814 31.0368C43.6849 30.61 43.3118 30.3255 42.9386 30.1595C42.4488 29.9461 41.8657 29.8038 41.2126 29.8038C40.4663 29.8038 39.7666 29.9224 39.2301 30.2069C38.6703 30.4677 38.2039 30.8234 37.8307 31.2739C37.4575 31.7244 37.201 32.246 37.0144 32.8625C36.8278 33.4552 36.7578 34.1191 36.7578 34.8067C36.7578 35.518 36.8511 36.1819 37.0377 36.7747C37.2243 37.3674 37.5042 37.8891 37.9007 38.3396C38.2972 38.7663 38.8103 39.122 39.4167 39.3591C40.0231 39.5962 40.7695 39.7148 41.6091 39.7148C43.3584 39.7148 44.268 39.3117 44.6412 39.0983C44.7112 39.0509 44.7811 39.0034 44.6878 38.8138L44.2913 37.6994C44.2214 37.5334 44.0581 37.6045 44.0581 37.6045C43.615 37.7705 43.0085 38.055 41.5858 38.055C40.6529 38.055 39.9531 37.7705 39.5333 37.3437C39.0902 36.8932 38.8569 36.2293 38.8336 35.3046H44.8511C44.8511 35.3046 45.0144 35.3046 45.0377 35.1387C45.0377 35.0201 45.2476 33.8346 44.8511 32.4594ZM38.8569 33.7398C38.9502 33.147 39.0902 32.6728 39.3467 32.2934C39.7199 31.7244 40.2797 31.3924 41.0727 31.3924C41.8657 31.3924 42.3788 31.7007 42.752 32.2934C43.0085 32.6728 43.1018 33.1707 43.1485 33.7398H38.8569Z" fill="#EBEDEF"/>
<path d="M28.2218 33.4316C27.9886 33.4079 27.662 33.4079 27.2889 33.4079C26.7757 33.4079 26.2626 33.479 25.7961 33.5975C25.3297 33.7161 24.9098 33.9295 24.5367 34.1903C24.1635 34.4511 23.8836 34.8068 23.6737 35.2098C23.4638 35.6129 23.3472 36.0871 23.3472 36.6325C23.3472 37.1778 23.4405 37.652 23.6271 38.0314C23.8136 38.4107 24.0702 38.7427 24.4201 38.9798C24.7466 39.2169 25.1664 39.4066 25.6562 39.5251C26.1227 39.6437 26.6591 39.6911 27.2422 39.6911C27.8719 39.6911 28.4784 39.6437 29.0848 39.5251C29.6679 39.4303 30.3909 39.2643 30.6008 39.2169C30.8107 39.1695 31.0206 39.0983 31.0206 39.0983C31.1606 39.0509 31.1606 38.9087 31.1606 38.9087V33.313C31.1606 32.0801 30.834 31.1791 30.2043 30.61C29.5746 30.041 28.6416 29.7565 27.4288 29.7565C26.9857 29.7565 26.2393 29.8276 25.8195 29.8987C25.8195 29.8987 24.5133 30.1595 23.9536 30.5863C23.9536 30.5863 23.837 30.6575 23.9069 30.8234L24.3268 31.9852C24.3734 32.1275 24.5367 32.0801 24.5367 32.0801C24.5367 32.0801 24.5833 32.0564 24.63 32.0327C25.7961 31.3925 27.2655 31.4162 27.2655 31.4162C27.9186 31.4162 28.4084 31.5585 28.7582 31.8193C29.0848 32.0801 29.248 32.4594 29.248 33.2893V33.5501C28.7116 33.479 28.2218 33.4316 28.2218 33.4316ZM25.8195 37.7469C25.5862 37.5572 25.5396 37.5098 25.4696 37.3912C25.353 37.2015 25.283 36.9407 25.283 36.585C25.283 36.0397 25.4696 35.6603 25.8195 35.3995C25.8195 35.3995 26.3326 34.949 27.5687 34.949C28.4317 34.949 29.2014 35.0913 29.2014 35.0913V37.8891C29.2014 37.8891 28.4317 38.0551 27.5687 38.1025C26.3792 38.1736 25.8195 37.7469 25.8195 37.7469Z" fill="#EBEDEF"/>
<path fill-rule="evenodd" clip-rule="evenodd" d="M76.8513 30.2781C76.898 30.1359 76.8047 30.0647 76.758 30.0647C76.6647 30.0173 76.1516 29.9225 75.7551 29.8988C74.9854 29.8513 74.5656 29.9699 74.1924 30.1596C73.8192 30.3255 73.3994 30.6101 73.1662 30.9183V30.1596C73.1662 30.0647 73.0962 29.9699 73.0029 29.9699H71.4636C71.3703 29.9699 71.3003 30.041 71.3003 30.1596V39.3118C71.3003 39.4066 71.3703 39.5015 71.4869 39.5015H73.0729C73.1662 39.5015 73.2595 39.4303 73.2595 39.3118V34.7357C73.2595 34.1192 73.3294 33.5027 73.4694 33.1234C73.6093 32.744 73.7726 32.4358 74.0058 32.2224C74.2157 32.009 74.4723 31.843 74.7522 31.7719C75.0321 31.677 75.3353 31.6533 75.5685 31.6533C75.895 31.6533 76.2216 31.7482 76.2216 31.7482C76.3382 31.7719 76.4082 31.677 76.4548 31.5822C76.5015 31.2977 76.8047 30.4441 76.8513 30.2781Z" fill="#EBEDEF"/>
<path fill-rule="evenodd" clip-rule="evenodd" d="M61.9941 26.034C61.8075 25.9628 61.6209 25.9391 61.3877 25.8917C61.1544 25.8443 60.8746 25.8206 60.5714 25.8206C59.4751 25.8206 58.6122 26.1288 58.0291 26.7453C57.4227 27.3617 57.0262 28.2864 56.8163 29.5194L56.7463 29.9462H55.3702C55.3702 29.9462 55.2069 29.9462 55.1603 30.1358L54.927 31.4162C54.9037 31.5348 54.9737 31.6059 55.1136 31.6059H56.4431L55.0903 39.2643C54.9737 39.8808 54.8571 40.3787 54.7405 40.7818C54.6005 41.1612 54.4839 41.4457 54.3206 41.6591C54.1574 41.8488 54.0174 42.0147 53.7609 42.0859C53.5509 42.157 53.3177 42.1807 53.0612 42.1807C52.9212 42.1807 52.7113 42.157 52.5714 42.1333C52.4314 42.1096 52.3614 42.0621 52.2448 42.0384C52.2448 42.0384 52.0816 41.9673 52.0349 42.1333C51.9883 42.2755 51.6384 43.2477 51.5918 43.3899C51.5451 43.5085 51.6151 43.6033 51.6851 43.627C51.8716 43.6982 51.9883 43.7219 52.2448 43.793C52.5714 43.8641 52.8746 43.8878 53.1311 43.8878C53.6909 43.8878 54.1807 43.8167 54.6005 43.6507C55.0203 43.4848 55.3935 43.224 55.72 42.8683C56.0699 42.4652 56.3031 42.0621 56.513 41.4931C56.723 40.9241 56.9095 40.2365 57.0495 39.4303L58.4023 31.6296H60.3848C60.3848 31.6296 60.548 31.6296 60.5947 31.4399L60.8279 30.1596C60.8512 30.041 60.7813 29.9699 60.6413 29.9699H58.7055C58.7055 29.9224 58.7988 29.2348 59.032 28.5947C59.1253 28.3101 59.3119 28.0968 59.4518 27.9308C59.5918 27.7885 59.7784 27.67 59.9649 27.5988C60.1515 27.5277 60.3614 27.504 60.618 27.504C60.8046 27.504 60.9679 27.5277 61.1078 27.5514C61.2944 27.5988 61.3644 27.6225 61.411 27.6225C61.5976 27.6937 61.6442 27.6225 61.6676 27.5277L62.134 26.2473C62.134 26.1288 62.0174 26.0577 61.9941 26.034Z" fill="#EBEDEF"/>
<path fill-rule="evenodd" clip-rule="evenodd" d="M35.0555 39.2881C35.0555 39.3829 34.9855 39.4777 34.8922 39.4777H33.2829C33.1896 39.4777 33.1196 39.3829 33.1196 39.2881V26.1999C33.1196 26.1051 33.1896 26.0103 33.2829 26.0103H34.8922C34.9855 26.0103 35.0555 26.0814 35.0555 26.1999V39.2881Z" fill="#EBEDEF"/>
</svg>
