<svg width="119" height="35" viewBox="0 0 119 35" fill="none" xmlns="http://www.w3.org/2000/svg">
<path d="M4.89211 8.92342C3.63096 5.09364 2.40803 2.52768 0.458984 0.53619V0.459595H14.752V0.53619C12.8794 2.68087 12.2679 5.51491 13.873 9.72768L20.1023 27L25.9112 11.1064C27.7074 6.31917 26.9813 2.33619 24.2679 0.53619V0.459595H32.8284V0.53619C30.7647 2.41279 29.1978 5.55321 27.9749 9.03832L18.8029 34.2383H14.1787L4.89211 8.92342Z" fill="#2C2C2C"/>
<path d="M40.5485 31.2127C39.2491 33.0893 37.0708 34.8127 34.1281 34.8127C31.3383 34.8127 28.9307 33.3957 28.9307 30.217C28.9307 25.2383 35.1982 23.0936 40.3956 21.9829V19.1489C40.3956 16.4298 39.2874 15.2042 36.0007 15.2042C34.2045 15.2042 32.1026 15.5872 30.0389 16.4298L29.8479 16.0851C32.0644 13.3659 35.6186 10.9915 40.6249 10.9915C45.5931 10.9915 47.7714 13.3659 47.7714 17.0042V28.8C47.7714 29.9106 48.2682 30.8681 49.7587 30.8681C50.2555 30.8681 50.9052 30.7149 51.5167 30.3319L51.5931 30.5234C50.9434 32.0553 49.3383 34.7361 45.4402 34.7361C42.6504 34.7361 40.9307 33.2808 40.5485 31.2127ZM40.3956 30.3319V22.9404C37.1472 23.8212 35.3893 25.6595 35.3893 27.8042C35.3893 29.6042 36.4593 30.7915 38.4466 30.7915C39.2109 30.7915 39.8606 30.6383 40.3956 30.3319Z" fill="#2C2C2C"/>
<path d="M52.9298 34.0851V34.0085C53.6559 31.7872 54.0763 29.8723 54.0763 26.0042L54.0381 20.7957C54.0381 17.3489 53.3884 15.4723 51.7451 13.4808V13.4042L61.2228 10.7234V15.3191L61.4139 15.3574C62.6368 13.3659 65.0445 10.9532 69.1337 10.9532C73.1846 10.9532 76.0126 13.4425 76.0126 17.3489V25.9276C76.0126 29.834 76.3948 31.7106 77.1209 33.9702V34.0851H67.5286V34.0085C68.2547 31.7872 68.6368 29.7191 68.6368 26.0425V17.8085C68.6368 15.817 67.6814 14.4 65.4649 14.4C63.7833 14.4 62.2929 15.3957 61.4139 16.6596V26.0042C61.4139 29.834 61.7961 31.7489 62.5222 34.0085V34.0851H52.9298Z" fill="#2C2C2C"/>
<path d="M81.2871 28.3787V12.7149H78.7266V12.2936L88.1661 6.35742H88.6629V11.6808H94.1278V12.6766H88.6629V28.1489C88.6629 30.9064 90.1151 31.7872 91.9495 31.7872C93.5546 31.7872 94.51 31.0596 94.5482 31.0213L94.7011 31.1744C93.631 32.9744 91.2616 34.7744 87.5928 34.7744C83.924 34.7744 81.2871 32.9744 81.2871 28.3787Z" fill="#2C2C2C"/>
<path d="M107.733 31.2128C106.434 33.0894 104.255 34.8128 101.313 34.8128C98.5229 34.8128 96.1152 33.3957 96.1152 30.217C96.1152 25.2383 102.383 23.0936 107.58 21.983V19.1489C107.58 16.4298 106.472 15.2043 103.185 15.2043C101.389 15.2043 99.2872 15.5872 97.2235 16.4298L97.0324 16.1234C99.249 13.4043 102.803 11.0298 107.81 11.0298C112.778 11.0298 114.956 13.4043 114.956 17.0426V28.8383C114.956 29.9489 115.453 30.9064 116.943 30.9064C117.44 30.9064 118.09 30.7532 118.701 30.3702L118.778 30.5617C118.128 32.0936 116.523 34.7745 112.625 34.7745C109.835 34.7362 108.115 33.2809 107.733 31.2128ZM107.58 30.3319V22.9404C104.332 23.8213 102.574 25.6596 102.574 27.8043C102.574 29.6043 103.644 30.7915 105.631 30.7915C106.395 30.7915 107.045 30.6383 107.58 30.3319Z" fill="#2C2C2C"/>
</svg>
