<svg width="122" height="39" viewBox="0 0 122 39" fill="none" xmlns="http://www.w3.org/2000/svg">
<path fill-rule="evenodd" clip-rule="evenodd" d="M120.935 18.1905C121.161 18.2663 121.345 18.3032 121.571 18.342C120.862 20.4305 120.077 22.5189 119.368 24.6462C112.768 24.6462 106.126 24.6462 99.5264 24.6462C99.5264 24.4209 99.5264 24.2344 99.5264 24.009C99.8605 24.009 100.16 24.009 100.494 24.009C101.578 24.009 102.359 23.6748 102.806 23.0415C103.068 22.6666 103.218 21.8098 103.218 20.5043C103.218 15.5056 103.218 10.507 103.218 5.51023C103.218 4.05512 103.031 3.12261 102.695 2.78651C102.211 2.26585 101.463 2.00359 100.494 2.00359C100.16 2.00359 99.8605 2.00359 99.5264 2.00359C99.5264 1.81514 99.5264 1.59367 99.5264 1.36831C103.404 1.36831 107.284 1.36831 111.126 1.36831C111.126 1.59367 111.126 1.81514 111.126 2.00359C109.784 2.00359 108.813 2.11432 108.29 2.37659C107.731 2.60001 107.358 2.89919 107.134 3.27026C106.948 3.6452 106.835 4.50195 106.835 5.8813C106.835 10.7692 106.835 15.6552 106.835 20.5043C106.835 21.4368 106.948 22.109 107.134 22.482C107.284 22.7054 107.507 22.8919 107.843 23.0046C108.14 23.1153 109.149 23.1523 110.788 23.1523C111.424 23.1523 112.059 23.1523 112.653 23.1523C114.633 23.1523 116.012 23.0415 116.793 22.7812C117.578 22.5189 118.324 22.0332 118.958 21.363C119.63 20.6908 120.3 19.6456 120.935 18.1905ZM84.3808 2.63692C84.3808 5.73365 84.3808 8.79346 84.3808 11.8513C86.2458 11.8513 88.1478 11.8513 90.0128 11.8513C91.4679 11.8513 92.4373 11.626 92.923 11.253C93.5952 10.6935 93.9663 9.79786 94.042 8.45543C94.2654 8.45543 94.4889 8.45543 94.7511 8.45543C94.7511 11.1791 94.7511 13.866 94.7511 16.5489C94.4889 16.5489 94.2654 16.5489 94.042 16.5489C93.8555 15.4318 93.6671 14.7227 93.5194 14.3885C93.296 13.9767 92.8861 13.6795 92.4004 13.456C91.8778 13.2307 91.0949 13.0811 90.0128 13.0811C88.1478 13.0811 86.2458 13.0811 84.3808 13.0811C84.3808 15.6552 84.3808 18.1905 84.3808 20.7646C84.3808 21.8098 84.4177 22.4062 84.5304 22.6297C84.6061 22.8531 84.8276 23.0415 85.053 23.1523C85.3133 23.3018 85.7971 23.3757 86.5061 23.3757C87.9243 23.3757 89.3795 23.3757 90.8346 23.3757C92.2877 23.3757 93.3329 23.3018 94.0032 23.0765C94.6385 22.8919 95.2737 22.5558 95.8682 22.0332C96.6531 21.2872 97.4729 20.244 98.2947 18.8258C98.555 18.8258 98.7804 18.8258 99.0407 18.8258C98.3297 20.7646 97.5487 22.7054 96.8396 24.6462C90.2362 24.6462 83.6736 24.6462 77.0703 24.6462C77.0703 24.4209 77.0703 24.2344 77.0703 24.009C77.3675 24.009 77.6667 24.009 78.0028 24.009C78.5992 24.009 79.1587 23.8613 79.7182 23.5991C80.0912 23.4145 80.3904 23.1523 80.54 22.7812C80.6507 22.4431 80.7634 21.6622 80.7634 20.5412C80.7634 15.5056 80.7634 10.472 80.7634 5.43447C80.7634 3.94438 80.5769 3.04684 80.2408 2.71269C79.792 2.227 79.046 2.00359 78.0028 2.00359C77.6667 2.00359 77.3675 2.00359 77.0703 2.00359C77.0703 1.81514 77.0703 1.59367 77.0703 1.36831C83.6736 1.36831 90.2362 1.36831 96.8396 1.36831C96.9153 3.08375 97.0261 4.76422 97.0999 6.47772C96.8765 6.47772 96.6162 6.47772 96.3928 6.47772C96.1305 5.24796 95.8313 4.42618 95.4971 3.94438C95.198 3.49367 94.6754 3.15952 94.0789 2.89919C93.5564 2.74766 92.6627 2.63692 91.3921 2.63692C89.0434 2.63692 86.7296 2.63692 84.3808 2.63692ZM75.0556 0.847656C75.2421 3.49367 75.4675 6.10665 75.6521 8.75461C75.4675 8.75461 75.2421 8.75461 75.0556 8.75461C74.3096 6.40584 73.1518 4.72537 71.6986 3.6452C70.2823 2.60001 68.528 2.07935 66.5134 2.07935C64.798 2.07935 63.269 2.48927 61.8897 3.23334C60.5084 4.05512 59.4282 5.28682 58.6434 7.00032C57.8605 8.7177 57.4505 10.8431 57.4505 13.4172C57.4505 15.5056 57.8605 17.3337 58.5676 18.8646C59.3156 20.4305 60.4715 21.5864 61.9616 22.4432C63.4167 23.263 65.1341 23.6748 67.036 23.6748C68.7145 23.6748 70.1677 23.3388 71.4383 22.6666C72.7049 22.0332 74.1231 20.7646 75.6521 18.8258C75.8386 18.9754 76.0251 19.0511 76.2485 19.1988C74.9818 21.2872 73.4509 22.7423 71.7374 23.7137C70.0201 24.7181 68.0074 25.1669 65.6198 25.1669C61.3652 25.1669 58.045 23.7856 55.7701 20.8773C54.0546 18.7519 53.159 16.2536 53.159 13.3803C53.159 11.0684 53.7574 8.9042 54.8764 6.9634C55.9954 5.02455 57.5982 3.53252 59.6147 2.45042C61.6274 1.36831 63.8266 0.847656 66.2142 0.847656C68.0424 0.847656 69.9074 1.25758 71.6617 2.07935C72.2192 2.33774 72.5942 2.45042 72.8176 2.45042C73.1518 2.45042 73.4509 2.37659 73.7132 2.15124C74.0124 1.81514 74.2727 1.40523 74.3835 0.847656C74.6069 0.847656 74.8303 0.847656 75.0556 0.847656V0.847656ZM50.5499 0.847656C50.7364 3.49367 50.9229 6.10665 51.1075 8.75461C50.9229 8.75461 50.7364 8.75461 50.5499 8.75461C49.767 6.40584 48.648 4.72537 47.1929 3.6452C45.7378 2.60001 43.9854 2.07935 41.9689 2.07935C40.2554 2.07935 38.7245 2.48927 37.3451 3.23334C36.0027 4.05512 34.8837 5.28682 34.1377 7.00032C33.3528 8.7177 32.9429 10.8431 32.9429 13.4172C32.9429 15.5056 33.3178 17.3337 34.0619 18.8646C34.771 20.4305 35.9269 21.5864 37.419 22.4432C38.9129 23.263 40.5895 23.6748 42.5303 23.6748C44.1719 23.6748 45.662 23.3388 46.9306 22.6666C48.1992 22.0332 49.6174 20.7646 51.1075 18.8258C51.3329 18.9754 51.5174 19.0511 51.7039 19.1988C50.4373 21.2872 48.9064 22.7423 47.1929 23.7137C45.4755 24.7181 43.4628 25.1669 41.1121 25.1669C36.8594 25.1669 33.5393 23.7856 31.2274 20.8773C29.512 18.7519 28.6164 16.2536 28.6164 13.3803C28.6164 11.0684 29.2128 8.9042 30.3318 6.9634C31.4878 5.02455 33.0925 3.53252 35.1071 2.45042C37.0829 1.36831 39.284 0.847656 41.6716 0.847656C43.5366 0.847656 45.3648 1.25758 47.154 2.07935C47.6766 2.33774 48.0496 2.45042 48.273 2.45042C48.6091 2.45042 48.9452 2.37659 49.1706 2.15124C49.5047 1.81514 49.7282 1.40523 49.8777 0.847656C50.1031 0.847656 50.3246 0.847656 50.5499 0.847656H50.5499ZM18.3976 16.8481C15.0775 16.8481 11.7573 16.8481 8.47408 16.8481C7.87572 18.0798 7.2793 19.3115 6.72173 20.5412C6.2749 21.4368 6.08646 22.109 6.08646 22.5558C6.08646 22.8919 6.2749 23.228 6.64597 23.4883C6.98206 23.7487 7.80384 23.9371 9.03359 24.009C9.03359 24.2344 9.03359 24.4209 9.03359 24.6462C6.34678 24.6462 3.66386 24.6462 0.977051 24.6462C0.977051 24.4209 0.977051 24.2344 0.977051 24.009C2.05915 23.8244 2.73134 23.5991 3.06549 23.3388C3.69883 22.7812 4.40987 21.6622 5.19086 19.9836C8.13993 13.6037 11.2347 7.26258 14.2168 0.847656C14.4033 0.847656 14.6287 0.847656 14.854 0.847656C17.7992 7.33835 20.859 13.7164 23.7673 20.2071C24.4745 21.7729 25.1836 22.7423 25.745 23.228C26.3395 23.6748 27.1613 23.9371 28.2045 24.009C28.2045 24.2344 28.2045 24.4209 28.2045 24.6462C24.8125 24.6462 21.4535 24.6462 18.0615 24.6462C18.0615 24.4209 18.0615 24.2344 18.0615 24.009C19.1048 23.9371 19.8119 23.7856 20.1499 23.5272C20.521 23.263 20.6725 22.9657 20.6725 22.5947C20.6725 22.0721 20.4491 21.2872 19.9265 20.2071C19.402 19.0861 18.8794 17.9671 18.3976 16.8481ZM17.8361 15.5814C16.4199 12.4478 14.9259 9.31412 13.5097 6.18048C12.0565 9.31412 10.5256 12.4478 9.03359 15.5814C11.9807 15.5814 14.9259 15.5814 17.8361 15.5814Z" fill="#2C2C2C"/>
<path fill-rule="evenodd" clip-rule="evenodd" d="M108.29 29.233C108.29 30.2763 108.29 31.3584 108.29 32.4405C108.177 32.4405 108.067 32.4405 107.991 32.4405C107.88 31.8072 107.731 31.3215 107.468 30.9873C107.245 30.6124 106.874 30.3132 106.425 30.0898C105.941 29.8664 105.456 29.7556 104.97 29.7556C104.447 29.7556 103.964 29.9033 103.591 30.2025C103.256 30.5016 103.068 30.8358 103.068 31.2088C103.068 31.4691 103.181 31.7314 103.404 31.9917C103.738 32.3298 104.523 32.7766 105.755 33.3342C106.798 33.8198 107.468 34.1948 107.843 34.4182C108.216 34.6785 108.515 34.9758 108.7 35.3138C108.886 35.6499 108.999 36.021 108.999 36.394C108.999 37.1031 108.663 37.7014 108.03 38.2221C107.396 38.7447 106.575 38.9681 105.568 38.9681C105.269 38.9681 104.97 38.9681 104.71 38.9293C104.523 38.8943 104.189 38.8185 103.666 38.6689C103.144 38.5194 102.806 38.4475 102.695 38.4475C102.545 38.4475 102.435 38.4824 102.359 38.5582C102.285 38.634 102.248 38.7447 102.211 38.9681C102.099 38.9681 101.988 38.9681 101.912 38.9681C101.912 37.9249 101.912 36.8408 101.912 35.7607C101.988 35.7607 102.099 35.7607 102.211 35.7607C102.324 36.4309 102.51 36.9535 102.771 37.2896C102.992 37.6257 103.367 37.886 103.814 38.1114C104.3 38.3348 104.857 38.4475 105.419 38.4475C106.089 38.4475 106.611 38.2959 106.986 37.9968C107.396 37.6626 107.583 37.3265 107.583 36.9166C107.583 36.6932 107.507 36.4698 107.357 36.2075C107.208 35.9841 106.986 35.7607 106.687 35.5742C106.464 35.4246 105.902 35.1273 104.97 34.6786C104.037 34.2317 103.367 33.8956 102.992 33.5964C102.621 33.3342 102.285 33.0739 102.099 32.7397C101.912 32.4017 101.801 32.0675 101.801 31.6556C101.801 31.0223 102.099 30.4259 102.695 29.9422C103.291 29.4565 104.037 29.2331 104.97 29.2331C105.531 29.2331 106.165 29.3438 106.798 29.5691C107.097 29.7187 107.321 29.7557 107.433 29.7557C107.583 29.7557 107.694 29.7187 107.767 29.643C107.88 29.5691 107.919 29.4196 107.991 29.2331C108.067 29.2331 108.177 29.2331 108.29 29.2331V29.233ZM98.7414 38.7447C97.772 38.7447 96.8007 38.7447 95.8312 38.7447C94.6384 37.2896 93.3698 35.8714 92.1769 34.4182C91.8778 34.4182 91.6543 34.4182 91.5047 34.4182C91.4309 34.4182 91.3552 34.4182 91.2813 34.4182C91.2056 34.4182 91.1337 34.4182 91.021 34.4182C91.021 35.3138 91.021 36.2075 91.021 37.1031C91.021 37.7014 91.0948 38.0725 91.2444 38.2221C91.4678 38.4086 91.767 38.5193 92.1769 38.5193C92.3246 38.5193 92.4373 38.5193 92.5869 38.5193C92.5869 38.5951 92.5869 38.6689 92.5869 38.7447C91.0579 38.7447 89.4901 38.7447 87.9612 38.7447C87.9612 38.6689 87.9612 38.5951 87.9612 38.5193C88.0719 38.5193 88.2234 38.5193 88.3361 38.5193C88.8179 38.5193 89.1171 38.3717 89.3405 38.1114C89.4551 37.9618 89.4901 37.6257 89.4901 37.1031C89.4901 35.0885 89.4901 33.1108 89.4901 31.0981C89.4901 30.5017 89.4163 30.1267 89.2686 29.9791C89.0802 29.7906 88.746 29.6799 88.3361 29.6799C88.2234 29.6799 88.0719 29.6799 87.9612 29.6799C87.9612 29.6041 87.9612 29.5322 87.9612 29.4195C89.2686 29.4195 90.5722 29.4195 91.8777 29.4195C93.0337 29.4195 93.8924 29.4934 94.4519 29.643C94.9745 29.7906 95.4602 30.0548 95.8312 30.4259C96.2062 30.8358 96.3927 31.2846 96.3927 31.8441C96.3927 32.4016 96.1673 32.8873 95.7574 33.3342C95.3106 33.746 94.6384 34.0433 93.7428 34.2317C94.4519 35.1273 95.2348 35.9841 95.9827 36.8797C96.4646 37.5149 96.9153 37.9249 97.2863 38.1114C97.6613 38.3348 98.1431 38.4475 98.7414 38.5193C98.7414 38.5951 98.7414 38.6689 98.7414 38.7447V38.7447ZM91.021 33.9714C91.1337 33.9714 91.2056 33.9714 91.2813 33.9714C91.3552 33.9714 91.4309 33.9714 91.4678 33.9714C92.513 33.9714 93.296 33.7849 93.8186 33.4099C94.3411 33 94.5995 32.5163 94.5995 31.9198C94.5995 31.3215 94.3781 30.8747 93.9662 30.5017C93.5563 30.1267 92.9599 29.9421 92.2877 29.9421C91.9904 29.9421 91.5436 29.979 91.021 30.0898C91.021 31.3973 91.021 32.6639 91.021 33.9714ZM79.0829 29.9421C79.0829 31.1738 79.0829 32.4016 79.0829 33.6333C79.8677 33.6333 80.6507 33.6333 81.4724 33.6333C82.0669 33.6333 82.4768 33.5595 82.7022 33.373C82.9625 33.1865 83.151 32.8135 83.151 32.2909C83.2617 32.2909 83.3744 32.2909 83.4482 32.2909C83.4482 33.373 83.4482 34.4532 83.4482 35.5372C83.3744 35.5372 83.2617 35.5372 83.151 35.5372C83.0752 35.0515 82.9994 34.7893 82.9275 34.6416C82.8518 34.492 82.6653 34.3813 82.4768 34.2667C82.2554 34.1948 81.9193 34.119 81.4724 34.119C80.6507 34.119 79.8677 34.119 79.0829 34.119C79.0829 35.1642 79.0829 36.1706 79.0829 37.2158C79.0829 37.6257 79.0829 37.886 79.1586 37.9618C79.1975 38.0356 79.2694 38.1114 79.382 38.1832C79.4578 38.2221 79.6793 38.259 79.9785 38.259C80.5768 38.259 81.2102 38.259 81.8085 38.259C82.4419 38.259 82.8518 38.2221 83.151 38.1483C83.4093 38.0725 83.7085 37.9249 83.9319 37.7014C84.27 37.4392 84.641 36.9923 84.9771 36.4309C85.0529 36.4309 85.1636 36.4309 85.2744 36.4309C84.9771 37.2158 84.641 37.9967 84.3419 38.7447C81.5443 38.7447 78.7856 38.7447 75.9881 38.7447C75.9881 38.6689 75.9881 38.5951 75.9881 38.5193C76.1377 38.5193 76.2484 38.5193 76.3611 38.5193C76.6234 38.5193 76.8817 38.4475 77.1071 38.3717C77.2567 38.259 77.4043 38.1832 77.4432 38.0356C77.517 37.886 77.5559 37.5868 77.5559 37.1031C77.5559 35.0885 77.5559 33.0738 77.5559 31.0592C77.5559 30.4647 77.4801 30.0898 77.3325 29.9421C77.146 29.7556 76.8099 29.6799 76.3611 29.6799C76.2484 29.6799 76.1377 29.6799 75.9881 29.6799C75.9881 29.6041 75.9881 29.5322 75.9881 29.4195C78.7856 29.4195 81.5443 29.4195 84.3419 29.4195C84.3807 30.1267 84.4176 30.7989 84.4545 31.4691C84.3807 31.4691 84.27 31.4691 84.1554 31.4691C84.0446 30.9873 83.9319 30.6512 83.7843 30.4647C83.6736 30.2763 83.4482 30.1267 83.1879 30.0548C82.9625 29.9791 82.5895 29.9421 82.0669 29.9421C81.0625 29.9421 80.0542 29.9421 79.0829 29.9421ZM61.2543 29.4195C62.2257 29.4195 63.1932 29.4195 64.2015 29.4195C66.3657 31.7683 68.6406 34.0821 70.8048 36.4309C70.8048 34.6416 70.8048 32.8524 70.8048 31.0592C70.8048 30.4647 70.7291 30.1267 70.5795 29.9791C70.393 29.7906 70.0958 29.6799 69.647 29.6799C69.5343 29.6799 69.4216 29.6799 69.274 29.6799C69.274 29.6041 69.274 29.5322 69.274 29.4195C70.5426 29.4195 71.8092 29.4195 73.0409 29.4195C73.0409 29.5322 73.0409 29.6041 73.0409 29.6799C72.9302 29.6799 72.8175 29.6799 72.6699 29.6799C72.2192 29.6799 71.885 29.7906 71.6985 30.0548C71.5858 30.2025 71.512 30.5366 71.512 31.0592C71.512 33.6722 71.512 36.2832 71.512 38.9293C71.4382 38.9293 71.3255 38.9293 71.2148 38.9293C68.8641 36.394 66.4376 33.9325 64.0907 31.3973C64.0907 33.3342 64.0907 35.238 64.0907 37.14C64.0907 37.7014 64.1626 38.0725 64.3122 38.2221C64.5007 38.4086 64.7979 38.5193 65.2447 38.5193C65.3574 38.5193 65.5051 38.5193 65.6197 38.5193C65.6197 38.5951 65.6197 38.6689 65.6197 38.7447C64.3491 38.7447 63.1194 38.7447 61.8508 38.7447C61.8508 38.6689 61.8508 38.5951 61.8508 38.5193C61.9615 38.5193 62.113 38.5193 62.2257 38.5193C62.6725 38.5193 63.0067 38.4086 63.1932 38.1483C63.3059 37.9967 63.3797 37.6626 63.3797 37.14C63.3797 34.9758 63.3797 32.8135 63.3797 30.6512C63.0825 30.3521 62.8221 30.1267 62.6725 30.016C62.4841 29.9421 62.2607 29.8295 61.9615 29.7556C61.8139 29.7187 61.5516 29.6799 61.2543 29.6799C61.2543 29.6041 61.2543 29.5322 61.2543 29.4195ZM58.9425 29.4195C58.9775 30.1656 59.0163 30.8747 59.0532 31.6207C58.9425 31.6207 58.8667 31.6207 58.754 31.6207C58.6822 31.2457 58.6064 30.9485 58.4957 30.7989C58.3441 30.5366 58.1207 30.3521 57.8604 30.2025C57.5631 30.0898 57.227 30.016 56.7783 30.016C56.2557 30.016 55.7331 30.016 55.2474 30.016C55.2474 32.4016 55.2474 34.7893 55.2474 37.14C55.2474 37.7014 55.3232 38.0725 55.4339 38.2221C55.6593 38.4086 55.9565 38.5193 56.4053 38.5193C56.5179 38.5193 56.6306 38.5193 56.7783 38.5193C56.7783 38.5951 56.7783 38.6689 56.7783 38.7447C55.2474 38.7447 53.6815 38.7447 52.1545 38.7447C52.1545 38.6689 52.1545 38.5951 52.1545 38.5193C52.3022 38.5193 52.4149 38.5193 52.5645 38.5193C53.0113 38.5193 53.3474 38.4086 53.5339 38.1483C53.6446 37.9967 53.7204 37.6626 53.7204 37.14C53.7204 34.7893 53.7204 32.4016 53.7204 30.016C53.2716 30.016 52.8248 30.016 52.4149 30.016C51.8923 30.016 51.5173 30.0548 51.3328 30.1267C51.0355 30.2025 50.8102 30.3521 50.6237 30.6124C50.4003 30.8747 50.2895 31.2088 50.2507 31.6207C50.138 31.6207 50.0642 31.6207 49.9515 31.6207C49.9903 30.8747 50.0273 30.1656 50.0642 29.4195C53.0113 29.4195 55.9954 29.4195 58.9425 29.4195ZM48.6091 38.7447C47.6396 38.7447 46.6702 38.7447 45.6988 38.7447C44.5079 37.2896 43.2393 35.8714 42.0445 34.4182C41.7454 34.4182 41.5219 34.4182 41.3743 34.4182C41.2985 34.4182 41.2247 34.4182 41.1489 34.4182C41.0751 34.4182 40.9644 34.4182 40.8886 34.4182C40.8886 35.3138 40.8886 36.2075 40.8886 37.1031C40.8886 37.7014 40.9644 38.0725 41.112 38.2221C41.2985 38.4086 41.6346 38.5193 42.0445 38.5193C42.1572 38.5193 42.3068 38.5193 42.4545 38.5193C42.4545 38.5951 42.4545 38.6689 42.4545 38.7447C40.8886 38.7447 39.3597 38.7447 37.7919 38.7447C37.7919 38.6689 37.7919 38.5951 37.7919 38.5193C37.9415 38.5193 38.0911 38.5193 38.2018 38.5193C38.6875 38.5193 38.9847 38.3717 39.2101 38.1114C39.3228 37.9618 39.3597 37.6257 39.3597 37.1031C39.3597 35.0885 39.3597 33.1108 39.3597 31.0981C39.3597 30.5017 39.2839 30.1267 39.1343 29.9791C38.9478 29.7906 38.6137 29.6799 38.2018 29.6799C38.0911 29.6799 37.9415 29.6799 37.7919 29.6799C37.7919 29.6041 37.7919 29.5322 37.7919 29.4195C39.1343 29.4195 40.4418 29.4195 41.7454 29.4195C42.9013 29.4195 43.7619 29.4934 44.3195 29.643C44.8421 29.7906 45.3278 30.0548 45.6988 30.4259C46.0738 30.8358 46.2603 31.2846 46.2603 31.8441C46.2603 32.4016 46.0369 32.8873 45.6269 33.3342C45.1762 33.746 44.5079 34.0433 43.6104 34.2317C44.3195 35.1273 45.1044 35.9841 45.8504 36.8797C46.3341 37.5149 46.7829 37.9249 47.1539 38.1114C47.5269 38.3348 48.0126 38.4475 48.6091 38.5193C48.6091 38.5951 48.6091 38.6689 48.6091 38.7447ZM40.8886 33.9714C40.9993 33.9714 41.0751 33.9714 41.1489 33.9714C41.2247 33.9714 41.2985 33.9714 41.3354 33.9714C42.3787 33.9714 43.1636 33.7849 43.6862 33.4099C44.2087 33 44.4691 32.5163 44.4691 31.9198C44.4691 31.3215 44.2437 30.8747 43.8338 30.5017C43.4239 30.1267 42.8294 29.9421 42.1572 29.9421C41.8211 29.9421 41.4112 29.979 40.8886 30.0898C40.8886 31.3973 40.8886 32.6639 40.8886 33.9714ZM30.8174 35.6499C29.4362 35.6499 28.0199 35.6499 26.6386 35.6499C26.3783 36.1317 26.116 36.6174 25.8926 37.1031C25.7061 37.4761 25.6323 37.7364 25.6323 37.9249C25.6323 38.0725 25.7061 38.1832 25.8576 38.2959C26.0053 38.4086 26.3394 38.4824 26.862 38.5193C26.862 38.5951 26.862 38.6689 26.862 38.7447C25.7449 38.7447 24.589 38.7447 23.47 38.7447C23.47 38.6689 23.47 38.5951 23.47 38.5193C23.9168 38.4475 24.2141 38.3717 24.3268 38.259C24.6259 38.0356 24.9251 37.5868 25.2593 36.8797C26.491 34.3425 27.7945 31.7683 29.0651 29.233C29.137 29.233 29.2516 29.233 29.3235 29.233C30.5552 31.8072 31.8626 34.3813 33.0924 36.9923C33.3896 37.6257 33.6888 37.9967 33.9511 38.1832C34.1745 38.3717 34.5475 38.4824 34.9574 38.5193C34.9574 38.5951 34.9574 38.6689 34.9574 38.7447C33.5392 38.7447 32.121 38.7447 30.7067 38.7447C30.7067 38.6689 30.7067 38.5951 30.7067 38.5193C31.1166 38.4825 31.4139 38.4475 31.5635 38.3348C31.7111 38.2221 31.7869 38.0725 31.7869 37.9249C31.7869 37.7364 31.6742 37.4023 31.4877 36.9923C31.2643 36.5436 31.0409 36.0967 30.8174 35.6499ZM30.5921 35.1273C29.9976 33.8568 29.3623 32.627 28.7659 31.3584C28.1326 32.627 27.4973 33.8568 26.862 35.1273C28.1326 35.1273 29.3623 35.1273 30.5921 35.1273ZM17.5757 34.3813C17.5757 35.3138 17.5757 36.2075 17.5757 37.1031C17.5757 37.7014 17.6515 38.0725 17.7991 38.2221C17.9857 38.4086 18.2848 38.5193 18.6947 38.5193C18.8443 38.5193 18.9939 38.5193 19.1047 38.5193C19.1047 38.5951 19.1047 38.6689 19.1047 38.7447C17.5757 38.7447 16.0099 38.7447 14.479 38.7447C14.479 38.6689 14.479 38.5951 14.479 38.5193C14.6286 38.5193 14.7393 38.5193 14.8889 38.5193C15.3357 38.5193 15.6718 38.3717 15.8584 38.1114C15.971 37.9618 16.0099 37.6257 16.0099 37.1031C16.0099 35.0885 16.0099 33.1108 16.0099 31.0981C16.0099 30.5017 15.971 30.1267 15.8214 29.9791C15.6 29.7906 15.3008 29.6799 14.8889 29.6799C14.7393 29.6799 14.6286 29.6799 14.479 29.6799C14.479 29.6041 14.479 29.5322 14.479 29.4195C15.7865 29.4195 17.1289 29.4195 18.4325 29.4195C19.4019 29.4195 20.1868 29.5322 20.7443 29.6799C21.3058 29.8664 21.7915 30.1656 22.1625 30.5755C22.5375 30.9873 22.724 31.4691 22.724 31.9917C22.724 32.7766 22.4617 33.373 21.8634 33.8568C21.3058 34.3425 20.449 34.6047 19.4019 34.6047C19.1047 34.6047 18.8443 34.5659 18.5452 34.529C18.246 34.492 17.9118 34.4532 17.5757 34.3813ZM17.5757 34.0064C17.8361 34.0433 18.0983 34.0821 18.3217 34.119C18.5452 34.119 18.7317 34.156 18.8793 34.156C19.4408 34.156 19.9264 33.9714 20.2975 33.5964C20.7094 33.2234 20.9308 32.7397 20.9308 32.1413C20.9308 31.7314 20.8201 31.3584 20.6336 31.0223C20.449 30.6882 20.1499 30.4259 19.8118 30.2413C19.4408 30.0548 19.0658 29.9791 18.619 29.9791C18.3217 29.9791 17.9857 30.016 17.5757 30.1267C17.5757 31.4342 17.5757 32.7008 17.5757 34.0064" fill="#2C2C2C"/>
<path d="M116.028 2.69521C116.271 2.71467 116.271 2.71467 116.271 2.93806V4.14255C116.271 4.35625 116.271 4.35625 116.028 4.37568V4.45339H116.834V4.37568C116.591 4.35623 116.591 4.35623 116.591 4.14255V3.64716H116.824C117.009 3.92885 117.028 3.958 117.087 4.05513C117.223 4.3174 117.349 4.45339 117.436 4.45339H117.747V4.41456C117.631 4.31742 117.514 4.18143 117.368 3.98715L117.087 3.5986C117.349 3.49176 117.485 3.31691 117.485 3.07406C117.485 2.80208 117.262 2.61752 116.912 2.61752H116.028V2.69523V2.69521ZM116.591 2.71467H116.795C117.028 2.71467 117.145 2.85066 117.145 3.11293C117.145 3.39463 117.019 3.55005 116.805 3.55005H116.591V2.71467ZM116.834 1.84044C115.882 1.84044 115.125 2.60782 115.125 3.56948C115.125 4.52142 115.882 5.27908 116.834 5.27908C117.767 5.27908 118.534 4.52142 118.534 3.5889C118.534 2.60782 117.796 1.84044 116.834 1.84044ZM116.834 2.05414C117.621 2.05414 118.262 2.73409 118.262 3.5889C118.262 4.38542 117.602 5.0751 116.834 5.0751C116.047 5.0751 115.396 4.38542 115.396 3.56948C115.396 2.74381 116.047 2.05414 116.834 2.05414Z" fill="#2C2C2C"/>
</svg>
