<svg width="163" height="44" viewBox="0 0 163 44" fill="none" xmlns="http://www.w3.org/2000/svg">
<path d="M42.9054 0.999418C41.051 0.992913 40.045 1.0311 40.3781 1.10196C41.9042 1.42663 41.8653 1.16176 41.8016 9.80582C41.7407 18.0582 41.7462 18.0022 40.7158 18.1598C40.4317 18.2033 40.7617 18.2627 41.4517 18.2925C42.1417 18.3224 43.7052 18.4117 44.926 18.4855C48.5044 18.702 49.0096 18.6925 50.3848 18.4011C55.2745 17.3649 58.3261 12.5016 57.255 7.45342C56.7967 5.29362 55.1089 2.99856 53.3162 2.10323C51.5439 1.21807 50.7182 1.11007 45.0225 1.02354C44.2331 1.01156 43.5235 1.00159 42.9054 0.999418ZM45.9997 1.53021C48.5669 1.46546 51.4968 2.50185 53.087 4.11785C55.5532 6.62409 56.2248 10.8573 54.6734 14.1366C54.0427 15.4697 52.595 16.7918 51.1448 17.3576C49.1032 18.1541 44.9659 18.0303 44.0816 17.1465C43.9282 16.9932 43.8644 14.7107 43.8644 9.3655V1.80164L44.926 1.62672C45.2729 1.57103 45.6329 1.53947 45.9997 1.53021Z" fill="#2C2C2C"/>
<path d="M106.681 18.5016C105.388 18.1092 105.341 18.032 105.341 16.2765C105.341 15.3842 105.428 14.6004 105.534 14.5348C105.65 14.4632 105.728 14.7099 105.728 15.1507C105.73 16.7987 107.131 17.9126 109.204 17.9126C110.569 17.9126 111.3 17.5936 111.981 16.7C112.587 15.9066 112.779 14.7659 112.489 13.69C112.249 12.7993 111.579 12.0583 108.588 9.37636C106.609 7.60224 105.92 6.43101 105.92 4.83984C105.92 2.25225 107.563 0.669847 110.263 0.656651C112.391 0.646247 113.886 0.89963 113.752 1.24811C113.691 1.40739 113.632 2.11689 113.622 2.82479C113.603 4.05173 113.594 4.07624 113.424 3.34947C113.102 1.9766 112.104 1.31312 110.36 1.31312C108.385 1.31312 107.274 2.293 107.272 4.03457C107.271 5.20908 107.912 6.14243 109.781 7.6866C112.913 10.2754 113.684 11.2121 114.037 12.8547C114.517 15.0937 113.511 17.148 111.459 18.1188C110.431 18.6048 110.046 18.682 108.719 18.6679C107.87 18.6589 106.953 18.584 106.681 18.5016Z" fill="#2C2C2C"/>
<path d="M119.386 18.3874C118.293 18.0384 118.215 17.8223 118.444 15.7894C118.534 14.9932 118.619 14.5966 118.633 14.9081C118.683 15.9915 119.384 17.083 120.32 17.5362C121.534 18.1236 123.534 18.022 124.394 17.3292C125.184 16.6922 125.608 15.7757 125.608 14.7021C125.608 13.3963 125.144 12.6346 123.412 11.0958C119.862 7.94182 119.201 7.07478 118.966 5.26994C118.818 4.13072 119.041 3.26015 119.738 2.25351C120.727 0.82608 122.546 0.38069 125.656 0.803859L126.766 0.954836L126.753 2.43683C126.742 3.63649 126.703 3.8269 126.544 3.43628C125.821 1.65803 125.178 1.26221 123.156 1.35343C121.925 1.409 121.699 1.48093 121.175 1.98275C120.037 3.07264 120.008 4.83867 121.106 6.14359C121.384 6.4745 122.457 7.4293 123.489 8.26537C126.305 10.5456 127.152 11.8286 127.152 13.8128C127.152 15.6737 126.33 17.0874 124.687 18.0503C123.922 18.4983 123.542 18.5813 122.047 18.6265C120.885 18.6617 119.994 18.5816 119.386 18.3874Z" fill="#2C2C2C"/>
<path d="M31.3706 14.9748C29.4879 13.0343 26.4913 9.82472 24.7115 7.84254C22.9318 5.86035 21.4044 4.23177 21.3173 4.22347C21.1189 4.20455 21.3519 14.8982 21.5837 16.4499C21.6776 17.0786 21.842 17.6805 21.949 17.7875C22.056 17.8946 22.5144 18.0424 22.9677 18.1162C23.4763 18.199 22.7573 18.2498 21.0896 18.249C19.6034 18.2483 18.6914 18.1941 19.0629 18.1284C20.1671 17.9334 20.1979 17.6778 20.2101 8.60556C20.2188 2.24515 20.2717 0.573114 20.4623 0.648124C20.595 0.700356 23.7367 4.04129 27.4439 8.07241C31.1511 12.1035 34.2129 15.3731 34.2479 15.3381C34.2829 15.3031 34.2396 12.2599 34.1518 8.57535C33.9735 1.09681 34.0442 1.42793 32.5636 1.13762C31.9073 1.00894 32.341 0.969048 34.4078 0.967985C36.1439 0.96702 36.8794 1.02113 36.4648 1.11913C36.11 1.20303 35.7191 1.37213 35.5963 1.49491C35.4357 1.6554 35.3577 4.07527 35.3187 10.1049C35.2772 16.54 35.2098 18.493 35.0292 18.4974C34.8997 18.5006 33.2534 16.9154 31.3706 14.9748Z" fill="#2C2C2C"/>
<path d="M80.2492 18.2986C79.0284 18.2348 78.2653 18.1652 78.5535 18.1441C79.5515 18.0707 79.5737 17.8838 79.5737 9.54769V1.85839L79.118 1.48923C78.8674 1.2862 78.3896 1.10135 78.0564 1.07846C77.6454 1.05023 86.1626 0.81803 87.1339 0.830981C87.1518 0.831174 87.1045 1.48265 87.0287 2.27861C86.9122 3.50161 86.8681 3.63172 86.7439 3.11851C86.4706 1.98933 86.055 1.805 83.6076 1.72731L81.4073 1.65746V5.1526V8.64774H83.7814C85.352 8.64774 86.2328 8.57043 86.3839 8.41933C86.7602 8.04305 86.8074 8.30374 86.6542 9.91266C86.5225 11.2958 86.4938 11.3756 86.3621 10.725C86.2818 10.3282 86.0585 9.91917 85.8658 9.81604C85.6731 9.71292 84.5842 9.56834 83.4459 9.49475L81.3765 9.36096L81.4401 13.0285C81.4877 15.7699 81.5704 16.7762 81.7676 17.0134C82.194 17.5265 83.4018 17.7473 84.9928 17.6031C86.6613 17.4519 87.0822 17.1964 87.5032 16.0789L87.794 15.3068L87.691 16.5221C87.5208 18.5285 87.5664 18.4978 84.8266 18.4531C83.5299 18.4319 81.47 18.3624 80.2492 18.2986Z" fill="#2C2C2C"/>
<path d="M93.7604 18.2986C92.5396 18.2348 91.7765 18.1652 92.0648 18.1441C93.0627 18.0707 93.0849 17.8838 93.0849 9.54769V1.85839L92.6292 1.48923C92.3786 1.2862 91.9009 1.10135 91.5676 1.07846C91.1567 1.05023 99.6738 0.81803 100.645 0.830981C100.663 0.831174 100.616 1.48265 100.54 2.27861C100.423 3.50161 100.379 3.63172 100.255 3.11851C99.9771 1.96995 99.5701 1.79564 97.1665 1.79564H95.0151L94.9623 5.22169L94.9096 8.64774H97.1465C98.3803 8.64774 99.5581 8.55418 99.7732 8.43908C99.9876 8.32432 100.199 8.26652 100.243 8.31064C100.287 8.35476 100.263 9.07837 100.19 9.91867C100.064 11.3608 100.047 11.4057 99.8803 10.7187C99.7832 10.3184 99.5514 9.90938 99.3652 9.80973C99.179 9.71008 98.1023 9.56878 96.9726 9.49575L94.9185 9.36295L94.9294 12.6244C94.9426 16.5804 95.0831 17.1315 96.1689 17.487C97.164 17.8128 99.794 17.6085 100.341 17.1629C100.551 16.9913 100.854 16.5035 101.014 16.0789L101.305 15.3068L101.202 16.5221C101.032 18.5285 101.078 18.4978 98.3378 18.4531C97.0411 18.4319 94.9813 18.3624 93.7604 18.2986Z" fill="#2C2C2C"/>
<path d="M133.329 18.2986C132.108 18.2348 131.338 18.1653 131.616 18.1441C132.651 18.0655 132.649 18.0838 132.71 9.77599L132.767 2.08426L132.284 1.60218C131.998 1.31606 131.544 1.10255 131.166 1.07693C130.816 1.05319 132.702 0.988047 135.356 0.932168C138.01 0.876288 140.205 0.839592 140.233 0.850621C140.262 0.861643 140.227 1.49839 140.156 2.2656L140.026 3.66054L139.779 2.9404C139.643 2.54433 139.417 2.14899 139.277 2.06185C138.859 1.80111 137.569 1.67135 136.031 1.73537L134.584 1.79566L134.531 5.22171L134.478 8.64776H136.715C137.949 8.64776 139.127 8.5542 139.342 8.4391C139.556 8.32434 139.776 8.27445 139.829 8.32824C139.883 8.38202 139.856 9.10563 139.768 9.93626C139.67 10.8654 139.585 11.2037 139.545 10.8155C139.449 9.87803 138.934 9.65049 136.562 9.49709L134.487 9.36297L134.498 12.6244C134.505 14.6166 134.599 16.1485 134.739 16.5608C135.057 17.4926 135.976 17.7846 138.026 17.6058C139.77 17.4536 140.392 17.0721 140.675 15.9793C140.812 15.4543 140.831 15.5975 140.762 16.6319C140.714 17.3607 140.574 18.0773 140.452 18.2243C140.215 18.5101 137.847 18.5347 133.329 18.2986Z" fill="#2C2C2C"/>
<path d="M157.459 15.2282C155.633 13.3802 152.575 10.1448 150.663 8.03833C148.751 5.93185 147.14 4.20836 147.084 4.20836C146.923 4.20836 147.236 15.9855 147.419 16.8261C147.623 17.7614 147.797 17.935 148.712 18.1122C149.17 18.2008 148.466 18.2509 146.84 18.2455C145.407 18.2407 144.516 18.2018 144.861 18.159C145.248 18.111 145.581 17.9196 145.73 17.6591C145.91 17.3437 145.986 15.1213 146.031 8.866L146.091 0.494995L146.586 0.952303C146.858 1.20382 149.946 4.51478 153.448 8.30997C156.949 12.1052 159.87 15.2103 159.938 15.2103C160.254 15.2103 159.841 2.05957 159.511 1.61007C159.389 1.44423 158.899 1.23223 158.421 1.13896C157.742 1.00639 158.121 0.968377 160.158 0.964814C161.986 0.96161 162.591 1.01176 162.185 1.13283C161.109 1.45363 161.125 1.32773 161.104 9.79449C161.093 14.1002 161.016 17.8402 160.932 18.1056C160.786 18.5627 160.603 18.4111 157.459 15.2282Z" fill="#2C2C2C"/>
<path d="M8.16218 0.613418C7.92276 0.634401 7.47177 1.83079 5.04375 8.51505C3.60943 12.4637 2.27708 16.0403 2.08818 16.4649C1.64607 17.4588 1.09607 17.9366 0.194198 18.1116C-0.251768 18.1982 0.506233 18.2548 2.17262 18.2564C3.92883 18.2579 4.64733 18.2057 4.22343 18.1056C3.44957 17.9229 3.21156 17.6056 3.35485 16.9475C3.60703 15.7892 5.04968 11.6237 5.2428 11.4948C5.52754 11.3047 10.0267 11.3157 10.3276 11.5068C10.4581 11.5897 11.0755 12.9967 11.7028 14.6373C12.5384 16.8224 12.7986 17.7134 12.6679 17.9608C12.5024 18.2743 12.6566 18.2985 14.8575 18.2805C16.768 18.2649 17.0788 18.2259 16.4619 18.0815C14.9055 17.717 14.7647 17.4492 11.1178 7.91187C9.6283 4.01676 8.33943 0.758721 8.25266 0.667704C8.2219 0.635438 8.19638 0.610421 8.16218 0.613418ZM7.75202 4.07566C7.90533 4.12676 10.1629 10.2258 10.1768 10.6262C10.1796 10.7058 9.11251 10.7709 7.80027 10.7709H5.41169L6.49138 7.39314C7.08609 5.53504 7.65399 4.04298 7.75202 4.07566Z" fill="#2C2C2C"/>
<path d="M62.2068 0.987392C60.7984 0.995923 60.1131 1.03893 60.4515 1.10803C60.8675 1.19296 61.3106 1.40652 61.4407 1.58454C61.993 2.33981 62.0621 16.3753 61.5191 17.5627C61.3509 17.9306 61.1055 18.1062 60.6807 18.1599C60.3502 18.2016 61.3804 18.2373 62.9728 18.2383C64.5652 18.2392 65.4807 18.1874 65.0055 18.1237C63.7561 17.9563 63.6578 17.6527 63.6544 14.004L63.6484 10.964H65.289H66.9357L67.8465 12.2548C69.5403 14.6411 71.7112 17.2718 72.3643 17.7376C72.945 18.1518 73.2303 18.2039 75.1329 18.2323C76.5662 18.2536 76.9739 18.2231 76.3875 18.1297C74.6554 17.8539 73.7718 17.0814 70.6151 13.0932L68.5341 10.4633L69.2036 9.69728C72.0845 6.40375 71.935 2.84529 68.8598 1.42771C68.0758 1.06631 67.5872 1.02635 63.8414 0.993424C63.2225 0.987981 62.6762 0.984547 62.2068 0.987404V0.987392ZM65.4157 1.50613C67.9969 1.51917 69.5964 3.51621 69.4027 6.69346C69.3107 8.20183 68.8455 9.26555 68.0274 9.84808C67.4434 10.2639 65.8105 10.4856 64.903 10.2703C64.6906 10.2199 64.3215 10.1343 64.0826 10.0833C63.6487 9.99072 63.6484 9.98569 63.6484 5.8671V1.7474L64.2515 1.62676C64.658 1.54546 65.0469 1.50426 65.4157 1.50613Z" fill="#2C2C2C"/>
<path d="M37.0557 25.8797C35.0861 25.8975 33.1442 26.4256 31.7175 27.4721C30.5083 28.3591 29.1509 30.108 28.6534 31.4229C26.684 36.6281 29.2547 42.2639 34.2509 43.6976C35.6427 44.097 39.1244 43.9459 40.4455 43.4262C42.8187 42.4926 44.9414 40.1927 45.6932 37.7382C46.2734 35.8438 46.2696 32.9746 45.6871 31.3566C45.2075 30.0243 44.1883 28.581 43.1538 27.7616C41.5534 26.4941 39.2879 25.8595 37.0557 25.8797H37.0557ZM36.1871 26.6156C36.4632 26.6134 36.7785 26.6182 37.1642 26.6337C38.7482 26.6971 39.1424 26.7846 40.0354 27.2731C43.1866 28.9969 44.7565 33.2779 43.8354 37.6236C43.3004 40.1478 42.1862 41.6683 40.156 42.642C39.1812 43.1096 38.7688 43.1927 37.5503 43.1789C36.7541 43.1698 35.8855 43.097 35.6201 43.016C32.993 42.214 30.9684 39.7956 30.3061 36.6706C29.3636 32.2236 30.9748 28.2005 34.1906 26.9896C34.91 26.7186 35.3586 26.6223 36.1871 26.6156V26.6156Z" fill="#2C2C2C"/>
<path d="M74.6938 25.8797C72.7242 25.8975 70.7824 26.4256 69.3557 27.4721C68.1465 28.3591 66.7891 30.108 66.2916 31.4229C64.3221 36.6281 66.8928 42.2639 71.8891 43.6976C73.2809 44.097 76.7625 43.9459 78.0837 43.4262C80.4569 42.4926 82.5796 40.1927 83.3313 37.7382C83.9116 35.8438 83.9078 32.9746 83.3253 31.3566C82.8457 30.0243 81.8265 28.581 80.792 27.7616C79.1916 26.4941 76.9261 25.8595 74.6938 25.8797H74.6938ZM73.8253 26.6156C74.1014 26.6134 74.4167 26.6182 74.8024 26.6337C76.3864 26.6971 76.7806 26.7846 77.6735 27.2731C80.8248 28.9969 82.3947 33.2779 81.4736 37.6236C80.9385 40.1478 79.8244 41.6683 77.7942 42.642C76.8194 43.1096 76.4069 43.1927 75.1884 43.1789C74.3922 43.1698 73.5237 43.097 73.2583 43.016C70.6311 42.214 68.6066 39.7956 67.9443 36.6706C67.0018 32.2236 68.613 28.2005 71.8287 26.9896C72.5482 26.7186 72.9968 26.6223 73.8253 26.6156V26.6156Z" fill="#2C2C2C"/>
<path d="M91.4958 43.7277C91.4471 43.595 90.5761 40.707 89.5602 37.3099C86.9453 28.5661 86.6079 27.512 86.2921 27.1001C86.1378 26.8987 85.5962 26.6223 85.0884 26.4858C84.2329 26.2557 84.3846 26.2387 87.157 26.2534C88.8025 26.2621 89.9163 26.3049 89.6321 26.3483C88.7686 26.4804 88.6205 26.8287 88.8757 28.1261C89.1168 29.3513 92.153 40.3436 92.2875 40.4781C92.3321 40.5226 92.3993 40.5229 92.437 40.4787C92.4747 40.4344 93.6461 37.3203 95.0402 33.5583C97.4416 27.0783 97.8178 26.192 98.0631 26.4373C98.12 26.4942 99.2573 29.6581 100.59 33.4682C101.923 37.2783 103.051 40.4324 103.096 40.4774C103.141 40.5223 103.216 40.521 103.262 40.4745C103.522 40.2145 107.038 28.0159 107.038 27.3737C107.038 26.7326 106.966 26.5895 106.603 26.5122C106.365 26.4613 105.995 26.3828 105.783 26.3379C105.571 26.293 106.57 26.2551 108.003 26.2537C109.527 26.2521 110.361 26.3101 110.013 26.3935C109.685 26.4718 109.314 26.5994 109.189 26.6769C108.69 26.9849 107.947 28.932 105.606 36.0554C104.264 40.1425 103.079 43.6168 102.975 43.7761C102.808 44.0287 102.751 44.022 102.522 43.7235C102.378 43.5354 101.645 41.6245 100.894 39.4772C100.142 37.3298 99.0778 34.2858 98.5281 32.7128C97.9785 31.1398 97.4586 29.9238 97.3729 30.0106C97.2872 30.0974 96.1206 33.1158 94.7805 36.7183C93.4404 40.3208 92.2595 43.426 92.1564 43.6187C91.9394 44.0242 91.6236 44.0763 91.4958 43.7278V43.7277Z" fill="#2C2C2C"/>
<path d="M140.715 43.5765C140.647 43.4667 141.396 42.1421 142.378 40.633C147.495 32.7748 150.891 27.4949 150.983 27.2537C151.068 27.0316 150.697 26.985 148.895 26.992C147.689 26.9966 145.801 27.0751 144.698 27.1663C142.846 27.3197 142.651 27.3751 142.13 27.8968C141.819 28.2072 141.444 28.8019 141.295 29.2183C140.962 30.1528 140.946 29.841 141.224 27.8521L141.44 26.308L147.449 26.3731C150.754 26.4088 153.483 26.4626 153.514 26.4926C153.544 26.5225 151.22 30.1679 148.35 34.5935C145.48 39.0191 143.132 42.6785 143.132 42.7255C143.132 42.8592 150.924 42.8256 151.607 42.6889C152.41 42.5285 153.334 41.6463 153.484 40.8987C153.549 40.5703 153.689 40.3017 153.793 40.3017C153.983 40.3017 153.942 40.69 153.534 42.7627L153.334 43.776H147.086C142.993 43.776 140.796 43.7072 140.715 43.5765Z" fill="#2C2C2C"/>
<path d="M8.88326 43.4144C9.92183 43.1919 9.9441 43.0114 9.94721 34.7894C9.94937 29.055 9.8923 27.1732 9.70879 26.9281C9.57609 26.7509 9.12008 26.5259 8.69545 26.4281C8.11021 26.2933 8.62401 26.2503 10.8186 26.2506C12.722 26.2508 13.4857 26.3047 13.0478 26.4078C11.9501 26.6662 11.8802 26.9049 11.8802 30.3982V33.5461H16.9952H22.1101V30.3982C22.1101 28.1839 22.0386 27.1528 21.8689 26.9216C21.7362 26.7409 21.2367 26.5166 20.759 26.4233C20.0979 26.2943 20.5819 26.2527 22.7857 26.2492C24.7837 26.2461 25.5016 26.2981 25.1021 26.4172C24.7837 26.5121 24.4146 26.7384 24.2818 26.9201C23.9328 27.3974 23.9394 42.1168 24.2889 42.8109C24.4758 43.182 24.7316 43.3202 25.3959 43.4092C25.8712 43.4729 24.9571 43.525 23.3647 43.5251C21.7723 43.5251 20.7019 43.4896 20.9861 43.4461C21.9595 43.2972 22.0089 43.0747 22.0753 38.5353L22.1371 34.3182H17.0087H11.8802V38.1497C11.8802 43.0777 11.9158 43.1864 13.6174 43.4544C13.8828 43.4962 12.7971 43.532 11.2047 43.5339C9.61228 43.5358 8.56764 43.482 8.88326 43.4144Z" fill="#2C2C2C"/>
<path d="M51.5499 26.2356C49.3656 26.2488 48.1744 26.3137 48.6124 26.3985C50.0636 26.6792 49.9997 26.2818 49.9997 34.855C49.9997 43.133 49.9807 43.2936 48.9863 43.4443C48.6944 43.4885 49.715 43.5274 51.2543 43.5287C52.7936 43.5301 53.8359 43.4981 53.5705 43.4563C52.4118 43.2738 52.2504 43.1787 52.0445 42.5878C51.9268 42.2504 51.8333 40.6997 51.8333 39.1074V36.2363L53.5222 36.2906L55.2111 36.3449L56.1762 37.6779C58.4991 40.8866 60.1422 42.8079 60.8931 43.1909C61.5214 43.5115 62.0054 43.5775 63.5531 43.5589C65.2052 43.539 65.324 43.5152 64.5061 43.3779C63.9916 43.2916 63.2477 43.0116 62.8534 42.7506C62.0413 42.2132 60.3044 40.2983 58.1667 37.5934L56.7131 35.7538L57.5575 34.7947C59.8882 32.146 60.1517 29.3665 58.2512 27.5143C57.1389 26.4304 55.9727 26.2089 51.5499 26.2356ZM53.8057 26.8026C55.2992 26.8471 56.3819 27.5399 57.087 28.8896C57.5502 29.7762 57.6239 30.1486 57.6239 31.5013C57.6239 33.2813 57.1729 34.4746 56.2365 35.1566C55.7541 35.508 53.9806 35.7839 53.474 35.5849C53.3678 35.5431 52.9553 35.4524 52.5572 35.3858L51.8333 35.2652V31.1394V27.0077L52.7019 26.875C53.0906 26.8167 53.4611 26.7923 53.8057 26.8026Z" fill="#2C2C2C"/>
<path d="M114.016 43.4466C114.995 43.2962 115.048 42.8474 115.046 34.674C115.044 27.6951 115.021 27.1872 114.688 26.8193C114.492 26.6029 114.059 26.3916 113.725 26.3496C113.391 26.3076 114.377 26.2682 115.916 26.2621C117.679 26.2551 118.476 26.3074 118.07 26.4035C117.715 26.4874 117.324 26.6566 117.201 26.7796C117.039 26.9414 116.978 29.1504 116.978 34.7903C116.978 42.1055 117 42.6016 117.336 42.9733C117.533 43.191 118.011 43.4026 118.398 43.4436C118.785 43.4846 117.842 43.5197 116.302 43.5216C114.763 43.5236 113.734 43.4898 114.016 43.4466Z" fill="#2C2C2C"/>
<path d="M127.357 43.4443C127.661 43.3984 128.036 43.1439 128.225 42.8545C128.527 42.3938 128.559 41.6202 128.559 34.7127V27.08L126.123 27.1081C123.453 27.1389 123.043 27.2616 122.469 28.2022C122.108 28.7943 122.095 28.7992 122.112 28.3347C122.122 28.0693 122.232 27.4178 122.356 26.887C122.563 26.004 122.623 25.9301 123.061 26.0184C123.325 26.0715 126.472 26.115 130.055 26.115H136.569L136.558 27.5626C136.548 28.9377 136.536 28.9765 136.317 28.3369C135.995 27.3971 135.431 27.1951 132.719 27.0493L130.372 26.9231L130.43 34.7505C130.485 42.058 130.513 42.6041 130.847 42.9735C131.044 43.1911 131.522 43.4026 131.909 43.4436C132.296 43.4846 131.309 43.5197 129.717 43.5216C128.124 43.5236 127.062 43.4888 127.357 43.4443H127.357Z" fill="#2C2C2C"/>
</svg>
