<svg width="151" height="48" viewBox="0 0 151 48" fill="none" xmlns="http://www.w3.org/2000/svg">
<path fill-rule="evenodd" clip-rule="evenodd" d="M9.01369 2.27643C8.70707 1.90849 8.40046 1.60188 7.84855 1.35659C7.35796 1.17262 6.62209 1.04997 5.51827 1.04997V6.87485C6.62209 6.87485 7.35796 6.81353 7.84855 6.56824C8.40046 6.26163 8.70707 5.95501 9.01369 5.58707C9.3203 5.15781 9.38163 4.66723 9.38163 3.93135C9.38163 3.19628 9.3203 2.70569 9.01369 2.27643ZM13.061 3.93216C13.061 4.66803 12.877 5.34259 12.3865 5.8945C11.8346 6.38508 10.9147 6.87566 9.62773 7.18228C10.9155 7.4889 11.958 7.91815 12.5704 8.40874C13.3676 9.14462 13.7969 9.94182 13.7969 11.1062C13.7969 12.21 13.3676 13.1298 12.4486 13.8657C11.3448 14.7855 9.68986 15.1535 7.54274 15.1535H0V14.7855L1.41043 14.5402L1.96234 14.0497C2.02366 13.8657 2.02366 13.3138 2.02366 12.5174V2.82753C2.02366 1.96982 2.02366 1.47923 1.96234 1.29526L1.34911 0.743353L0 0.682033V0.130127H7.174C8.89024 0.130127 10.1167 0.375418 10.8526 0.682033C11.5271 0.988649 12.079 1.35659 12.447 1.96982C12.8762 2.58305 13.061 3.19628 13.061 3.93216ZM5.51908 7.7947V13.129C5.51908 13.5583 5.64172 13.8649 5.82569 14.0489C6.00966 14.2328 6.31628 14.3555 6.74554 14.3555C7.35877 14.3555 7.84936 14.2328 8.40127 13.927C8.85543 13.6568 9.23487 13.2774 9.50508 12.8232C9.8117 12.3326 9.93434 11.7807 9.93434 11.1675C9.93434 10.4929 9.68905 9.75704 9.38243 9.26727C9.07582 8.71536 8.58523 8.34742 8.09465 8.10213C7.54193 7.91735 6.62289 7.7947 5.51908 7.7947ZM22.0739 5.15781C22.6871 5.58707 23.1164 5.95501 23.1777 6.50692C23.3004 6.81354 23.3004 7.48809 23.3004 8.65323V12.6384C23.3004 13.129 23.3004 13.4356 23.423 13.5583C23.423 13.6196 23.4843 13.7422 23.607 13.8649L23.7909 13.9262C24.0362 13.9262 24.2202 13.8649 24.4042 13.5583L24.7108 13.7422C24.4042 14.2328 24.0362 14.6621 23.607 14.9687C23.1777 15.2753 22.8098 15.398 22.2579 15.398C21.6446 15.398 21.154 15.1527 20.8474 14.8461C20.5408 14.5394 20.3568 14.1715 20.2342 13.6196C19.0077 14.7847 17.9039 15.398 16.8614 15.398C16.2482 15.398 15.7576 15.1527 15.451 14.7847C15.253 14.5948 15.0963 14.3661 14.9908 14.1128C14.8853 13.8596 14.8332 13.5873 14.8378 13.313C14.8378 12.5158 15.1444 11.7799 15.8189 11.1667C16.5548 10.5534 17.9652 9.75624 20.2342 8.65242V7.60993C20.2342 6.87405 20.2342 6.38346 20.1116 6.1995C20.0502 5.9542 19.9276 5.77023 19.621 5.58626L18.8851 5.34097C18.3945 5.34097 17.9652 5.46362 17.6586 5.64759L17.352 6.1995L17.6586 6.69008C17.9652 6.99589 18.0879 7.30331 18.0879 7.60993C18.0879 8.03919 17.9652 8.3458 17.6586 8.65242C17.352 8.83639 17.0454 8.95903 16.6775 8.95903C16.1256 8.95903 15.8189 8.83639 15.5123 8.52977C15.2057 8.22316 15.0217 7.91654 15.0217 7.48728C15.0217 6.9967 15.2057 6.56743 15.635 6.07685C16.0642 5.58626 16.6775 5.27965 17.352 4.97304C18.0879 4.66642 18.8851 4.54377 19.7428 4.54377C20.7248 4.54458 21.5833 4.72935 22.0739 5.15781ZM18.2113 13.129C18.3953 13.313 18.7019 13.4356 19.0085 13.4356C19.3152 13.4356 19.7444 13.2517 20.235 12.8224V9.32697C19.3152 9.87888 18.7019 10.4921 18.2727 11.1053C17.9661 11.4733 17.9047 11.9025 17.9047 12.3318C17.9047 12.6384 17.9661 12.945 18.2113 13.129ZM29.3092 1.04997V4.8512H31.7621V5.95501H29.3092V13.4356L29.6158 13.8649L30.0451 14.0489C30.5349 14.0489 30.9649 13.6196 31.3934 12.945L31.7621 13.2516C31.1489 14.6621 30.1677 15.3972 28.8186 15.3972C28.2054 15.3972 27.7148 15.1519 27.1629 14.7839C26.6723 14.4773 26.3657 14.048 26.2431 13.5575C26.1817 13.3122 26.1817 12.6376 26.1817 11.4725V5.9542H24.8326V5.58626C25.7525 4.85039 26.5497 4.23715 27.1629 3.50208C27.8988 2.82753 28.3894 1.96901 28.9413 1.04917H29.3092V1.04997ZM36.0539 1.04997V4.8512H38.5069V5.95501H36.0539V13.4356L36.3606 13.8649L36.7898 14.0489C37.2804 14.0489 37.7097 13.6196 38.1381 12.945L38.5061 13.2516C37.8928 14.6621 36.9117 15.3972 35.5634 15.3972C34.9501 15.3972 34.4595 15.1519 33.9076 14.7839C33.4171 14.4773 33.1104 14.048 32.9878 13.5575C32.9265 13.3122 32.9265 12.6376 32.9265 11.4725V5.9542H31.5774V5.58626C32.4972 4.85039 33.2944 4.23715 33.9076 3.50208C34.6435 2.82753 35.1341 1.96901 35.686 1.04917H36.0539V1.04997ZM43.3506 5.28046C42.9213 5.28046 42.6147 5.46443 42.3081 5.89369C41.8788 6.50692 41.6949 7.42676 41.6949 8.53058V8.95984H44.7602C44.7602 7.73338 44.6376 6.87486 44.5762 6.50692C44.4536 5.95501 44.2696 5.6492 43.963 5.46443L43.3506 5.28046ZM46.1706 5.89369C46.9065 6.69089 47.3358 7.91735 47.3971 9.63359H41.8175C41.8788 10.9827 42.1854 12.0865 42.7987 12.945C43.3506 13.5583 43.9638 13.8649 44.6376 13.8649C45.1903 13.8649 45.5582 13.7422 45.8648 13.4356C46.1706 13.129 46.6007 12.6997 47.0913 12.0865L47.3979 12.3318C46.9073 13.4356 46.2941 14.232 45.559 14.7847C44.8845 15.2753 44.1486 15.4593 43.2287 15.4593C41.6957 15.4593 40.4692 14.8461 39.7333 13.7422C39.1209 12.8224 38.8135 11.5967 38.8135 10.1863C38.8135 8.40794 39.2427 7.12015 40.1626 6.07846C41.0824 5.03678 42.1863 4.54539 43.4119 4.54539C44.5762 4.54458 45.4961 4.97465 46.1706 5.89369ZM54.1418 6.81353L53.9579 6.69169C53.6513 6.69169 53.4673 6.81353 53.3446 6.87566C53.038 7.18228 52.7314 7.48889 52.6088 8.0408C52.4248 8.71535 52.3021 9.45123 52.3021 10.3711V14.1723L52.7314 14.6629L53.6513 14.7855V15.1535H48.0103V14.7855C48.5622 14.7855 48.8689 14.6629 48.9302 14.4789C49.0528 14.1723 49.1755 13.6204 49.1755 12.7005V5.8945L48.7462 5.46524L48.0103 5.28126V4.852H52.3021V7.18228C52.9154 6.07846 53.5286 5.34258 54.0805 5.03678C54.5711 4.73016 55.0609 4.5462 55.6128 4.5462C55.9807 4.5462 56.2873 4.66884 56.5326 4.97546C56.8393 5.15942 56.9006 5.46523 56.9006 5.95662C56.9006 6.50853 56.8393 6.87647 56.5326 7.18309C56.2873 7.42838 55.9807 7.4897 55.6749 7.4897C55.307 7.4897 55.0004 7.42838 54.6937 7.18309L54.1418 6.81353ZM64.1972 4.8512H67.6305V5.28046C67.3239 5.34178 67.0173 5.46443 66.8333 5.6484C66.6493 5.89369 66.2201 6.56824 65.7295 7.91735L62.7247 15.5819C62.0509 17.5443 61.4369 18.6473 61.1303 19.1387C60.5783 19.7519 59.9659 20.0585 59.1679 20.0585C58.5547 20.0585 58.0641 19.8745 57.7575 19.5679C57.3282 19.2621 57.1442 18.7715 57.1442 18.2196C57.1442 17.8517 57.2056 17.5451 57.5122 17.2385C57.8188 16.9318 58.1254 16.8092 58.432 16.8092C58.8613 16.8092 59.1679 16.9318 59.3519 17.1158C59.6585 17.4224 59.7811 17.729 59.7811 18.2196C59.7811 18.5262 59.7811 18.6489 59.9038 18.7715L60.0878 18.9555C60.2717 18.9555 60.517 18.8329 60.701 18.5262C61.0076 18.2196 61.3142 17.6064 61.7435 16.5034L62.0501 15.5835L58.6781 7.91897C58.1262 6.81515 57.8196 6.07927 57.513 5.77266C57.329 5.46604 57.0224 5.34339 56.7158 5.28207V4.85281H62.2341V5.28207C61.8048 5.28207 61.4982 5.3434 61.4369 5.46604L61.1916 5.8953C61.1916 6.20192 61.4369 6.81515 61.7435 7.61235L63.5832 11.5975L64.687 8.53139C65.1776 7.42757 65.4229 6.56905 65.4229 6.20111C65.4229 5.89449 65.301 5.6492 65.1163 5.58788C64.9936 5.34259 64.687 5.28126 64.1964 5.28126V4.8512H64.1972ZM84.6154 2.52172L84.7364 1.78585L84.4919 1.17262L84.0022 0.743353L82.7757 0.682033V0.130127H87.6799V0.682033C87.1901 0.743356 86.6382 0.988648 86.1469 1.47923C85.841 1.78585 85.411 2.7057 84.7977 4.0548L79.5861 15.4593H79.2803L74.1905 3.62554C73.4546 2.21511 73.0866 1.35659 72.8414 1.05078C72.6574 0.744164 72.2281 0.68284 71.7375 0.68284V0.130127H78.9107V0.682033H78.6662C77.9917 0.682033 77.5616 0.743354 77.3785 0.866C77.1324 0.988646 77.071 1.04997 77.071 1.35659L77.1324 1.78585L77.7456 3.19628L80.9336 10.6769L83.8771 4.0548L84.6154 2.52172ZM90.4403 5.28046C90.0118 5.28046 89.7044 5.46443 89.397 5.89369C89.0298 6.50692 88.7837 7.42676 88.7837 8.53058V8.95984H91.8507C91.8507 7.73338 91.7894 6.87486 91.6659 6.50692C91.5433 5.95501 91.3585 5.6492 91.0527 5.46443L90.4403 5.28046ZM93.3208 5.89369C93.9954 6.69089 94.4255 7.91735 94.5481 9.63359H88.9064C89.029 10.9827 89.3365 12.0865 89.9497 12.945C90.4395 13.5583 91.0527 13.8649 91.7886 13.8649C92.2784 13.8649 92.7076 13.7422 93.015 13.4356C93.3208 13.129 93.6896 12.6997 94.2415 12.0865L94.5489 12.3318C93.9954 13.4356 93.383 14.232 92.7084 14.7847C91.9725 15.2753 91.2383 15.4593 90.3176 15.4593C88.7845 15.4593 87.5581 14.8461 86.8835 13.7422C86.2703 12.8224 85.9645 11.5967 85.9645 10.1863C85.9645 8.40794 86.3316 7.12015 87.2523 6.07846C88.1713 5.03597 89.3373 4.54539 90.5637 4.54539C91.6659 4.54458 92.5866 4.97465 93.3208 5.89369ZM99.3305 7.42677V12.945C99.3305 13.6196 99.4532 14.1715 99.5153 14.3555C99.6379 14.5394 99.9437 14.6621 100.374 14.7847V15.1527H95.1622V14.7847C95.5293 14.6621 95.8367 14.5394 96.0812 14.3555C96.1425 14.2328 96.266 13.7422 96.266 12.945V7.12015C96.266 6.26243 96.1433 5.77185 95.9585 5.6492C95.8375 5.46443 95.5301 5.34259 95.163 5.28126V4.852H99.3313V6.20111C99.8227 5.6492 100.375 5.28126 100.864 4.97465C101.354 4.66803 101.906 4.54539 102.397 4.54539C103.133 4.54539 103.624 4.73016 104.052 5.03597C104.542 5.46442 104.85 5.95582 104.973 6.50692C105.034 6.87486 105.156 7.73338 105.156 8.95984V12.945C105.156 13.7422 105.279 14.2328 105.341 14.4781C105.464 14.5394 105.771 14.6621 106.262 14.7847V15.1527H101.05V14.7847C101.356 14.6621 101.663 14.5394 101.907 14.2328C101.968 14.1715 101.968 13.6196 101.968 12.945V8.34661V6.69169L101.601 6.20111L101.049 5.95582C100.435 5.95501 99.8219 6.50692 99.3305 7.42677ZM111.102 1.04997V4.8512H113.556V5.95501H111.102V13.4356L111.41 13.8649L111.777 14.0489C112.33 14.0489 112.697 13.6196 113.126 12.945L113.556 13.2516C112.943 14.6621 111.899 15.3972 110.55 15.3972C109.937 15.3972 109.447 15.1519 108.957 14.7839C108.403 14.4773 108.098 14.048 108.036 13.5575C107.913 13.3122 107.913 12.6376 107.913 11.4725V5.9542H106.564V5.58626C107.485 4.85039 108.343 4.23715 108.957 3.50208C109.631 2.82753 110.183 1.96901 110.673 1.04917H111.102V1.04997ZM119.442 4.8512H123.672V12.945C123.672 13.7422 123.733 14.2328 123.857 14.4781C123.979 14.5394 124.285 14.6621 124.777 14.7847V15.1527H120.607V13.8649C120.055 14.3547 119.566 14.7847 119.074 15.0913C118.522 15.398 118.032 15.4593 117.419 15.4593C116.928 15.4593 116.376 15.2753 115.886 14.9687C115.396 14.6621 115.089 14.2328 114.967 13.7422C114.844 13.2525 114.782 12.3939 114.782 11.1675V7.12015C114.782 6.26243 114.66 5.77185 114.536 5.6492C114.475 5.46443 114.169 5.34259 113.616 5.28126V4.852H117.847V11.9033C117.847 12.6392 117.847 13.1298 117.908 13.3138L118.216 13.8657C118.337 13.927 118.521 13.927 118.829 13.927L119.442 13.7422C119.748 13.6196 120.178 13.2525 120.606 12.6384V7.12015C120.606 6.26243 120.484 5.77185 120.36 5.6492C120.299 5.46443 119.993 5.34259 119.441 5.28126V4.8512H119.442ZM131.705 6.81353L131.52 6.69169C131.214 6.69169 131.031 6.81353 130.907 6.87566C130.601 7.18228 130.294 7.48889 130.171 8.0408C129.963 8.79996 129.86 9.584 129.865 10.3711V14.1723L130.294 14.6629L131.214 14.7855V15.1535H125.573V14.7855C126.126 14.7855 126.431 14.6629 126.493 14.4789C126.616 14.1723 126.74 13.6204 126.74 12.7005V5.8945L126.309 5.46524L125.574 5.28126V4.852H129.866V7.18228C130.479 6.07846 131.093 5.34258 131.644 5.03678C132.134 4.73016 132.626 4.5462 133.177 4.5462C133.544 4.5462 133.851 4.66884 134.096 4.97546C134.403 5.15942 134.465 5.46523 134.465 5.95662C134.465 6.50853 134.403 6.87647 134.096 7.18309C133.851 7.42838 133.544 7.4897 133.239 7.4897C132.87 7.4897 132.564 7.42838 132.257 7.18309L131.705 6.81353ZM139.063 5.28046C138.694 5.28046 138.388 5.46443 138.081 5.89369C137.653 6.50692 137.468 7.42676 137.468 8.53058V8.95984H140.535C140.535 7.73338 140.412 6.87486 140.289 6.50692C140.227 5.95501 139.983 5.6492 139.675 5.46443L139.063 5.28046ZM141.944 5.89369C142.679 6.69089 143.048 7.91735 143.171 9.63359H137.529C137.652 10.9827 137.959 12.0865 138.572 12.945C139.062 13.5583 139.675 13.8649 140.411 13.8649C140.901 13.8649 141.33 13.7422 141.638 13.4356C141.944 13.129 142.374 12.6997 142.864 12.0865L143.172 12.3318C142.68 13.4356 142.067 14.232 141.331 14.7847C140.595 15.2753 139.922 15.4593 139.002 15.4593C137.469 15.4593 136.242 14.8461 135.506 13.7422C134.893 12.8224 134.587 11.5967 134.587 10.1863C134.587 8.40794 135.016 7.12015 135.936 6.07846C136.855 5.03597 137.96 4.54539 139.186 4.54539C140.289 4.54458 141.209 4.97465 141.944 5.89369ZM150.222 4.54458L150.407 8.10132H150.038C149.61 6.9975 149.18 6.26162 148.689 5.95501C148.199 5.58707 147.77 5.34178 147.279 5.34178C146.973 5.34178 146.665 5.46443 146.422 5.6484L146.114 6.38427L146.36 6.99669C146.666 7.30331 147.28 7.7939 148.261 8.52977C149.425 9.26565 150.1 9.87888 150.407 10.3695C150.713 10.86 150.959 11.412 150.959 12.0857C150.959 12.6376 150.836 13.2508 150.529 13.7414C150.223 14.232 149.795 14.7839 149.302 15.0905C148.813 15.3971 148.199 15.4585 147.586 15.4585C147.034 15.4585 146.422 15.2745 145.624 14.9679L145.134 14.8452C144.888 14.8452 144.704 15.0905 144.581 15.4585H144.213L143.967 11.7178H144.397C144.703 12.6989 145.195 13.4348 145.746 13.9254C146.36 14.4773 146.849 14.6613 147.34 14.6613C147.647 14.6613 147.953 14.5386 148.261 14.3547C148.505 14.1707 148.566 13.8649 148.566 13.5583C148.566 13.2517 148.505 12.945 148.261 12.6384L146.728 11.4733C145.625 10.6761 144.889 10.0629 144.581 9.63359C144.092 9.02036 143.907 8.3458 143.907 7.61073C143.907 6.87486 144.214 6.2003 144.704 5.58707C145.195 4.85119 146.053 4.54458 147.035 4.54458C147.587 4.54458 148.199 4.66723 148.69 4.97384L149.18 5.15781L149.487 5.03597L149.916 4.54539H150.222V4.54458Z" fill="#2C2C2C"/>
<path fill-rule="evenodd" clip-rule="evenodd" d="M17.7823 22.7551C17.2917 21.8966 16.5559 21.2842 15.636 20.9154C14.7162 20.487 13.3065 20.3022 11.3442 20.3022V31.2169C13.3065 31.2169 14.7162 31.0321 15.636 30.6037C16.5559 30.1736 17.2917 29.5604 17.7823 28.7648C18.2729 27.9676 18.5182 26.9243 18.5182 25.6978C18.5182 24.4714 18.2721 23.4297 17.7823 22.7551ZM25.4469 25.6986C25.4469 27.0477 24.9563 28.2734 23.9138 29.2554C22.994 30.4197 21.2769 31.2177 18.8248 31.8301C21.4617 32.4434 23.3006 33.1792 24.4044 34.0983C25.9375 35.3255 26.6734 36.9191 26.6734 39.0041C26.6734 41.1504 25.8762 42.8667 24.0986 44.2158C22.0749 45.811 19.1322 46.6679 15.1462 46.6679H0.920898V45.932L3.55779 45.5036L4.47764 44.5829C4.72293 44.2158 4.78425 43.2951 4.78425 41.7637V23.5523C4.78425 22.02 4.72293 21.1002 4.47764 20.7944C4.29367 20.3651 3.98705 20.0585 3.49647 19.7519L0.921705 19.4453V18.6481H14.2869C17.4757 18.6481 19.8052 18.9547 21.1543 19.5679C22.5026 20.0585 23.4846 20.9784 24.2204 22.1435C25.0168 23.2457 25.4469 24.3495 25.4469 25.6986ZM11.3442 32.8718L11.2216 42.8667C11.2216 43.6025 11.4669 44.2158 11.8348 44.5829C12.1414 44.8903 12.7546 45.1364 13.4905 45.1364C14.5943 45.1364 15.6368 44.8903 16.5567 44.4006C17.4765 43.9092 18.2124 43.1741 18.703 42.2542C19.1936 41.3344 19.4389 40.2919 19.4389 39.1889C19.4389 37.8398 19.1322 36.7352 18.519 35.6935C17.9058 34.5905 17.0473 33.8546 16.0661 33.4858C14.9001 33.0566 13.3671 32.8718 11.3442 32.8718ZM49.8495 22.9391L50.0948 21.59C50.0948 21.222 49.9721 20.9154 49.7881 20.6088L48.8683 19.7511L46.4767 19.4445V18.6473H55.6122V19.4445C54.5697 19.5663 53.6499 20.1804 52.914 21.0994C52.3008 21.8353 51.5036 23.3683 50.4006 25.8826L40.6518 47.2811H40.0386L30.4746 25.0854C29.3095 22.3267 28.5123 20.7936 28.0838 20.3643C27.7159 19.8737 26.98 19.5671 25.8762 19.4445V18.6473H39.243V19.4445H38.8137C37.5873 19.4445 36.7909 19.5663 36.3608 19.8737C36.0542 20.0577 35.8702 20.3643 35.8702 20.7936L36.0542 21.7134L37.2193 24.3495L43.1055 38.2682L48.6238 25.8826L49.8495 22.9391ZM61.7445 37.655C60.8247 38.4522 59.783 38.8815 58.6792 38.8815C57.514 38.8815 56.5329 38.453 55.613 37.655C54.7553 36.8578 54.3866 35.8161 54.3866 34.5897C54.3866 33.485 54.7545 32.4434 55.613 31.6462C56.5329 30.7271 57.5132 30.297 58.6792 30.297C59.783 30.297 60.8247 30.7271 61.7445 31.6462C62.134 32.0309 62.4431 32.4893 62.6538 32.9947C62.8645 33.5 62.9726 34.0422 62.9718 34.5897C62.971 35.8161 62.5417 36.8578 61.7445 37.655ZM58.1273 42.9893C58.1273 44.0923 57.7593 45.1356 56.9008 46.0547C55.981 46.8519 55.0006 47.2811 53.8355 47.2811C52.7317 47.2811 51.6892 46.8527 50.7701 46.0547C49.9729 45.1356 49.5437 44.0923 49.5437 42.9893C49.5437 41.825 49.9729 40.843 50.7701 39.9223C51.69 39.0654 52.7325 38.6959 53.8355 38.6959C55.0006 38.6959 55.9818 39.0646 56.9008 39.9223C57.7593 40.843 58.1273 41.825 58.1273 42.9893ZM67.7534 42.9893C67.7534 44.0923 67.3241 45.1356 66.5269 46.0547C65.6071 46.8519 64.5646 47.2811 63.4608 47.2811C62.357 47.2811 61.3153 46.8527 60.3954 46.0547C59.5982 45.1356 59.169 44.0923 59.169 42.9893C59.169 41.825 59.5982 40.843 60.3954 39.9223C61.3153 39.0654 62.3578 38.6959 63.4608 38.6959C64.5646 38.6959 65.6071 39.0646 66.5269 39.9223C67.3241 40.843 67.7534 41.825 67.7534 42.9893Z" fill="#2C2C2C"/>
</svg>
