<svg width="164" height="33" viewBox="0 0 164 33" fill="none" xmlns="http://www.w3.org/2000/svg">
<path d="M163.294 21.8085C162.545 21.7898 161.775 21.8815 161.051 21.7385C159.054 21.3467 158.019 20.0983 157.946 18.0648V14.4907C157.946 13.5999 158.265 12.5163 156.652 12.6764C156.01 12.7386 156.233 12.0452 156.186 11.6534C156.155 11.2073 156.155 10.6554 156.78 10.7175C158.226 10.8621 158.059 9.88268 157.988 9.0354C157.899 8.02487 158.17 7.60822 159.294 7.62377C160.335 7.62377 160.693 7.89272 160.671 8.96544C160.628 10.8435 160.702 10.8435 163.291 10.8435V12.7215C160.648 12.7215 160.648 12.7215 160.648 15.3084V16.804C160.685 18.8997 161.114 19.3381 163.291 19.5247L163.294 21.8085Z" fill="#2C2C2C"/>
<path d="M111.857 25.9252L111.901 26.3418H105.862L105.906 25.9252H111.857Z" fill="#2C2C2C"/>
<path d="M75.0317 15.1218L76.7387 18.1845C77.1041 18.8313 77.3606 19.5635 78.2203 19.7656C79.1469 19.9802 78.78 20.7668 78.7567 21.3249C78.7411 22.0152 78.1348 21.754 77.7508 21.8022C76.2894 21.9934 75.1934 21.5535 74.5482 20.1138C74.0632 19.0411 73.4242 18.0151 72.8537 16.9688C72.5054 16.336 72.0483 15.8961 71.2601 15.8183C70.1874 15.7142 69.5313 15.9427 69.7257 17.2066C69.892 18.2794 69.0603 19.8527 71.2399 19.89C71.7374 19.89 71.4731 20.7575 71.5089 21.2316C71.5555 21.768 71.1513 21.8007 70.758 21.8007C69.1256 21.8007 67.4885 21.7758 65.8546 21.8007C65.1752 21.8162 64.9638 21.5317 65.026 20.9098C65.0804 20.389 64.8301 19.6723 65.7691 19.7485C66.7594 19.8262 66.8698 19.2666 66.862 18.4628V9.60904C66.862 9.00583 66.862 8.43061 66.0163 8.51145C64.701 8.63582 65.0835 7.66882 65.0446 6.99566C64.9933 6.01623 65.7598 6.32716 66.2417 6.32249H72.2769C75.1685 6.34737 76.8553 7.30193 77.4617 9.22037C78.1923 11.5119 77.4181 13.4148 75.0364 15.125L75.0317 15.1218ZM69.721 11.0176C69.7583 13.7786 69.3588 13.5516 71.5804 13.5672C73.8564 13.5672 74.8016 12.8521 74.8498 11.1217C74.898 9.39139 73.8735 8.55654 71.4809 8.57985C69.4256 8.59851 69.7506 8.26892 69.721 11.016V11.0176Z" fill="#2C2C2C"/>
<path d="M111.857 25.9251H105.896C105.959 25.1198 105.287 23.9227 107 24.0331C107.536 24.0642 107.42 23.5092 107.42 23.1656C107.43 20.0252 107.43 16.8859 107.42 13.7475C107.42 13.2345 107.439 12.6748 106.681 12.7463C105.481 12.8598 105.791 11.997 105.787 11.372C105.787 10.4454 106.518 10.6475 107.019 10.688C108.172 10.7766 109.635 10.1127 110.172 11.9006C111.736 10.29 113.572 9.96038 115.54 10.789C117.561 11.6379 118.315 13.4008 118.478 15.4592C118.747 19.0349 117.182 21.4571 114.254 22.0245C113.046 22.2577 112.692 22.1722 110.355 21.0684C110.016 21.7835 110.237 22.5453 110.184 23.2791C110.158 23.6787 110.224 24.0844 110.739 24.0471C112.48 23.8948 111.784 25.1261 111.855 25.9236L111.857 25.9251ZM110.169 16.2288C110.169 17.8922 110.884 19.1546 112.093 19.5619C113.303 19.9693 114.313 19.6164 115.078 18.6291C115.983 17.4632 115.975 15.0628 115.063 13.8439C114.305 12.8334 113.29 12.4851 112.081 12.8909C110.871 13.2967 110.169 14.5497 110.169 16.2303V16.2288Z" fill="#2C2C2C"/>
<path d="M100.399 20.4761C97.756 22.564 95.3805 22.6215 93.5195 20.787C91.5731 18.8406 91.3243 14.6679 93.0174 12.3701C94.628 10.1749 97.2585 9.83136 100.082 11.4637C100.411 10.817 100.184 10.1221 100.245 9.47379C100.306 8.8255 100.191 8.33267 99.3697 8.40108C98.3592 8.4757 98.5271 7.74812 98.4913 7.12626C98.4369 6.21989 99.0665 6.35826 99.6262 6.32094C103.004 6.14993 103.004 6.14682 103.004 9.58572V18.0804C103.004 18.7753 102.72 19.6102 103.914 19.7874C104.719 19.9086 104.36 20.7046 104.383 21.2099C104.424 22.0681 103.726 21.7758 103.295 21.8007C101.134 21.925 101.088 21.9002 100.399 20.4792V20.4761ZM100.254 16.3998C100.285 15.7748 100.192 15.1498 99.9853 14.5591C99.55 13.4864 98.8256 12.7743 97.616 12.7494C96.3443 12.723 95.4706 13.3915 95.026 14.5373C94.7869 15.181 94.6791 15.8661 94.7088 16.5521C94.7928 18.4302 95.9914 19.7392 97.5072 19.7439C99.166 19.747 100.239 18.4379 100.268 16.3967L100.254 16.3998Z" fill="#2C2C2C"/>
<path d="M146.146 12.4121C146.575 11.7683 147.163 11.2462 147.853 10.8963C150.807 9.35253 153.57 10.8776 153.758 14.1735C153.836 15.4888 153.758 16.8164 153.78 18.1348C153.78 18.9043 153.511 19.7796 154.873 19.8138C155.678 19.8325 155.261 20.6969 155.345 21.185C155.429 21.6732 155.076 21.754 154.655 21.8224C151.434 22.3324 151.033 22.009 151.033 18.7971L151.011 15.0239C150.886 13.1117 149.549 12.3888 147.889 13.2672C146.412 14.0507 145.235 17.9622 146.039 19.3894C146.268 19.7936 146.67 19.7003 147.018 19.7812C147.853 19.9771 147.521 20.6642 147.555 21.1741C147.611 21.8349 147.123 21.8115 146.678 21.8115H142.717C142.247 21.8115 141.628 21.967 141.683 21.1508C141.729 20.6145 141.341 19.7578 142.414 19.7765C143.262 19.7921 143.259 19.2635 143.253 18.6572V13.9419C143.253 13.2392 143.183 12.6982 142.27 12.7339C141.358 12.7697 141.624 12.025 141.583 11.5182C141.529 10.8341 141.946 10.7377 142.525 10.6787C144.932 10.4423 145.529 10.6864 146.143 12.4152L146.146 12.4121Z" fill="#2C2C2C"/>
<path d="M126.371 10.3957C129.882 10.3957 132.465 12.8567 132.481 16.2039C132.496 19.5511 129.877 22.0758 126.424 22.1085C122.918 22.1551 120.174 19.5278 120.212 16.1588C120.243 12.8521 122.854 10.4066 126.371 10.3973V10.3957ZM126.405 19.7454C128.302 19.7112 129.732 18.1006 129.658 16.0842C129.588 14.1564 128.128 12.6997 126.3 12.737C124.403 12.7743 122.945 14.3927 123.025 16.3796C123.103 18.2685 124.619 19.7781 126.407 19.7454H126.405ZM86.5595 16.5895C85.7542 16.5895 84.9224 16.5521 84.1093 16.605C83.6616 16.6361 83.0211 16.291 82.8034 16.947C82.648 17.4538 82.9589 17.9233 83.2387 18.34C84.1777 19.733 86.0029 20.1745 87.9758 19.237C89.0298 18.7349 89.4993 18.8484 89.9533 19.89C90.4554 21.0404 89.5491 21.1337 88.9272 21.4338C86.3154 22.6153 83.3305 22.2142 81.5193 20.4761C79.7858 18.8095 79.2837 16.0205 80.2958 13.6589C81.3079 11.2974 83.7844 10.0148 86.5144 10.4657C88.7422 10.8341 90.2393 12.6686 90.4477 15.1172C90.5441 16.2599 90.2362 16.7465 89.0485 16.6066C88.2323 16.5537 87.413 16.5475 86.5952 16.5879L86.5595 16.5895ZM87.5498 14.9415C87.3679 13.3558 86.7212 12.4665 85.2847 12.4432C83.9912 12.4183 83.1081 13.4071 82.9651 14.9415H87.5498Z" fill="#2C2C2C"/>
<path d="M138.416 15.3348V18.1597C138.416 18.965 138.202 19.7889 139.53 19.8449C140.313 19.876 139.97 20.7357 139.996 21.241C140.033 21.9406 139.46 21.796 139.06 21.8007H135.302C134.797 21.8007 134.059 22.037 134.136 21.0809C134.174 20.5056 133.888 19.7392 134.942 19.7656C135.84 19.7967 135.719 19.1562 135.719 18.5996V14.0865C135.719 13.3029 135.808 12.5909 134.606 12.6966C133.816 12.7666 134.093 12.0172 134.053 11.5741C134.012 11.1311 134.13 10.6957 134.743 10.6989H137.751C138.384 10.6989 138.423 11.1124 138.42 11.5788L138.416 15.3364V15.3348ZM137.12 8.62961C136.315 8.68558 135.612 8.78508 135.668 7.54135C135.714 6.56969 135.937 6.21212 136.938 6.28519C137.781 6.34427 138.497 6.1717 138.468 7.48694C138.441 8.6094 137.947 8.72755 137.12 8.61406V8.62961Z" fill="#2C2C2C"/>
<path opacity="0.7" d="M30.5089 11.7627C36.5262 8.14565 42.4543 4.40823 47.9546 0H48.534L54.0521 30.7507C54.3418 32.3174 53.6398 32.3263 52.5478 32.3263L38.0617 32.3887L30.4264 12.1906L30.5089 11.7449V11.7627ZM0.23291 32.0098C0.399176 31.9768 0.570314 31.9768 0.73658 32.0098L1.3606 32.4444L0.23291 32.5893V32.0098Z" fill="#2C2C2C"/>
<path d="M1.35839 32.4444L0.734375 32.0031C1.26906 31.0303 2.04107 30.2084 2.97861 29.614C3.88343 29.6965 4.3715 29.3689 4.21772 28.3749L4.17984 28.4083C5.24512 28.7649 5.99394 28.1721 6.80962 27.6105C8.94911 26.144 11.1138 24.7103 13.3039 23.3092L30.4309 12.1794L38.0617 32.3864L13.7875 32.5424C9.64667 32.5558 5.50365 32.48 1.35839 32.4466V32.4444Z" fill="#2C2C2C"/>
<g opacity="0.7">
<path d="M30.4263 12.1906C24.4447 15.4979 19.038 19.6632 13.2993 23.3204C11.0944 24.717 8.9297 26.1507 6.80507 27.6216C5.98048 28.1832 5.24504 28.7738 4.17529 28.4195C11.5788 20.0777 19.6286 12.3577 27.3664 4.0338L30.5088 11.7716C30.4865 11.912 30.4553 12.0524 30.4263 12.195V12.1906Z" fill="#2C2C2C"/>
<path d="M4.2108 28.3816C4.37126 29.3622 3.88319 29.7188 2.97168 29.6207C3.20346 29.0591 3.64918 28.6134 4.2108 28.3816Z" fill="#2C2C2C"/>
</g>
</svg>
