<svg width="145" height="20" viewBox="0 0 145 20" fill="none" xmlns="http://www.w3.org/2000/svg">
<path d="M51.7887 19.7422L49.9448 16.5397C50.8182 14.8899 50.8182 12.949 50.8182 10.4259C50.8182 7.22342 50.8182 4.89435 48.9744 2.95346C47.7128 1.59484 46.0631 0.915527 43.9281 0.915527C41.7931 0.915527 40.1433 1.69188 38.8818 2.95346C37.0379 4.79731 37.0379 7.12638 37.0379 10.4259C37.0379 13.6284 36.9409 15.9574 38.8818 17.8983C40.2404 19.2569 41.7931 19.9363 43.9281 19.9363C44.5103 19.9363 44.9956 19.8392 45.4808 19.7422H51.7887ZM41.502 15.6663C40.8226 14.8899 40.6286 14.0165 40.6286 10.4259C40.6286 6.83524 40.8226 5.96184 41.502 5.18548C41.9872 4.60322 42.8606 4.21504 43.831 4.21504C44.8015 4.21504 45.6749 4.60322 46.1601 5.18548C46.8394 5.96184 47.0335 6.83524 47.0335 10.4259C47.0335 14.0165 46.8394 14.8899 46.1601 15.6663C45.6749 16.2486 44.8015 16.6367 43.831 16.6367C42.8606 16.6367 41.9872 16.2486 41.502 15.6663Z" fill="#2C2C2C"/>
<path d="M94.3911 1.10965H97.9818V19.7422H94.3911V1.10965Z" fill="#2C2C2C"/>
<path d="M7.63345 19.9362C4.81916 19.9362 2.68418 19.354 0.840332 17.5101L3.1694 15.1811C4.33394 16.3456 5.98369 16.7338 7.63345 16.7338C9.76843 16.7338 10.933 15.9574 10.933 14.4047C10.933 13.7254 10.7389 13.2402 10.3507 12.852C9.96252 12.4638 9.57434 12.3668 8.70094 12.1727L6.46891 11.8815C4.9162 11.6875 3.65462 11.1052 2.87827 10.3288C2.00486 9.45543 1.51964 8.19385 1.51964 6.64114C1.51964 3.34163 3.94576 1.01256 8.02163 1.01256C10.5448 1.01256 12.4857 1.59483 14.0384 3.14754L11.7093 5.37956C10.5448 4.21503 9.08912 4.11798 7.92458 4.11798C5.98369 4.11798 5.01325 5.18547 5.01325 6.44705C5.01325 6.93228 5.20734 7.4175 5.59552 7.80568C5.98369 8.19385 6.56596 8.38794 7.34232 8.58203L9.57434 8.87317C11.3211 9.06726 12.3886 9.55248 13.165 10.3288C14.1354 11.2993 14.6207 12.6579 14.6207 14.3077C14.6207 17.8983 11.5152 19.9362 7.63345 19.9362Z" fill="#2C2C2C"/>
<path d="M19.8608 19.7422V1.10965H32.1855V4.31212H23.5485V8.67912H30.9239V11.9786H23.5485V16.5397H32.1855V19.7422H19.8608Z" fill="#2C2C2C"/>
<path d="M63.1431 19.9363C59.3584 19.9363 56.2529 17.3161 56.2529 13.3373V1.10965H59.9406V13.2402C59.9406 15.3752 61.2022 16.6368 63.1431 16.6368C65.084 16.6368 66.3456 15.3752 66.3456 13.2402V1.10965H69.9362V13.3373C69.9362 17.3161 66.9278 19.9363 63.1431 19.9363Z" fill="#2C2C2C"/>
<path d="M87.2097 17.8983C85.9482 19.2569 84.2984 19.9363 82.1634 19.9363C80.0285 19.9363 78.3787 19.1599 77.1171 17.8983C75.2733 16.0545 75.2733 13.7254 75.2733 10.4259C75.2733 7.22342 75.1762 4.89435 77.1171 2.95346C78.3787 1.59484 80.0285 0.915527 82.1634 0.915527C84.2984 0.915527 85.8511 1.69188 87.2097 2.95346C89.0536 4.79731 89.0536 7.12638 89.0536 10.4259C89.0536 13.6284 89.0536 15.9574 87.2097 17.8983ZM84.4925 5.18548C84.0073 4.60322 83.1339 4.21504 82.1634 4.21504C81.193 4.21504 80.3196 4.60322 79.8344 5.18548C79.155 5.96184 78.961 6.83524 78.961 10.4259C78.961 14.0165 79.155 14.8899 79.8344 15.6663C80.3196 16.2486 81.193 16.6367 82.1634 16.6367C83.1339 16.6367 84.0073 16.2486 84.4925 15.6663C85.1718 14.8899 85.3659 14.0165 85.3659 10.4259C85.3659 6.83524 85.1718 5.96184 84.4925 5.18548Z" fill="#2C2C2C"/>
<path d="M115.159 19.7422L114.091 16.4427H107.492L106.328 19.7422H102.543L109.336 1.10965H112.15L118.943 19.7422H115.159ZM110.792 6.54414L108.463 13.3373H113.121L110.792 6.54414Z" fill="#2C2C2C"/>
<path d="M140.293 1.10965H144.952V5.76779H140.293V1.10965Z" fill="#2C2C2C"/>
<path d="M128.648 15.7634V1.10965H126.319V18.0924L128.648 15.7634Z" fill="#2C2C2C"/>
<path d="M130.298 17.4131L127.969 19.7422H144.952V17.4131H130.298Z" fill="#2C2C2C"/>
<path d="M133.306 11.1052V1.10965H130.977V13.4343L133.306 11.1052Z" fill="#2C2C2C"/>
<path d="M134.956 12.755L132.627 15.084H144.952V12.755H134.956Z" fill="#2C2C2C"/>
<path d="M137.964 6.4471V1.10965H135.635V8.77617L137.964 6.4471Z" fill="#2C2C2C"/>
<path d="M139.614 8.09682L137.285 10.4259H144.952V8.09682H139.614Z" fill="#2C2C2C"/>
</svg>
