<svg width="62" height="62" viewBox="0 0 62 62" fill="none" xmlns="http://www.w3.org/2000/svg">
<path d="M61.3654 0.755737H0.634766V61.4863H61.3654V0.755737Z" fill="#2C2C2C"/>
<path d="M28.9538 35.0936L18.5298 15.5663H23.2937L29.4255 27.9242C29.5198 28.1443 29.6299 28.3723 29.7556 28.6081C29.8814 28.8439 29.9915 29.0876 30.0858 29.3392C30.1487 29.4335 30.1959 29.52 30.2273 29.5986C30.2588 29.6772 30.2902 29.748 30.3216 29.8109C30.4789 30.1253 30.6204 30.4319 30.7461 30.7306C30.8719 31.0294 30.982 31.3045 31.0763 31.5561C31.3279 31.0215 31.603 30.4476 31.9018 29.8345C32.2005 29.2213 32.5071 28.5845 32.8215 27.9242L39.0476 15.5663H43.4814L32.963 35.3295V47.9232H28.9538V35.0936Z" fill="#F8C346"/>
</svg>
